<svg width="131" height="114" viewBox="0 0 131 114" fill="none" xmlns="http://www.w3.org/2000/svg">
<path d="M72.7356 5.28562C72.7266 6.23835 72.4202 7.17766 71.7828 7.88102C70.876 8.88295 69.3641 9.2844 68.0782 8.87177C67.3703 8.64477 66.7486 8.20196 66.0464 7.95818C64.9986 7.59476 63.8468 7.69875 62.7577 7.91122C57.7033 8.89637 53.1532 12.2175 50.6752 16.7318C50.1553 17.68 49.7091 18.6931 48.9543 19.4681C47.2892 21.1767 44.0822 20.4208 44.0017 17.8075C43.9659 16.6569 44.5149 15.5755 45.0964 14.5814C47.6527 10.2069 51.1795 6.31998 55.5977 3.83976C60.0169 1.36065 65.3654 0.375497 70.2654 1.66257C70.6378 1.75986 71.0135 1.87392 71.3356 2.08414C71.8063 2.39054 72.1295 2.88256 72.3531 3.39694C72.6103 3.98736 72.74 4.64041 72.7345 5.28674L72.7356 5.28562Z" fill="#FDFBFB" stroke="#FDFBFB" stroke-width="0.5" stroke-linecap="round" stroke-linejoin="round"/>
<path d="M92.3535 17.943C92.5268 18.6743 92.529 19.5018 92.4496 20.2365C92.1768 22.7391 91.6009 25.2081 90.7399 27.5743C90.4447 28.3872 90.0935 29.2181 89.4427 29.7884C88.0125 31.0408 85.3478 30.2133 84.9139 28.3626C84.4499 26.3823 86.2267 24.5238 86.2357 22.4897C85.047 22.7346 83.8583 22.9795 82.6708 23.2244C80.7977 29.7257 77.1534 35.876 71.6629 39.83C66.8054 43.3278 60.3767 44.9347 54.5083 43.443C48.9149 42.0217 44.5337 36.5693 43.3461 31.0631C41.8354 31.5429 40.101 32.0013 38.7424 31.185C37.1165 30.2077 37.0785 27.4468 38.6753 26.4236C39.2445 26.0602 39.921 25.9137 40.5819 25.7751C41.9662 25.4832 43.3506 25.1913 44.735 24.9006C45.8174 24.6725 47.034 24.4667 47.9588 25.0739C49.0312 25.7773 49.2291 27.2265 49.5187 28.4756C49.9973 30.5409 51.0093 32.4967 52.5089 33.9962C56.0995 37.5846 62.1044 37.9838 66.6745 35.772C71.2436 33.5601 74.4719 29.1823 76.3505 24.4667C74.9997 25.1802 73.1994 25.1187 72.0621 24.0988C70.9249 23.079 70.7404 21.0785 71.8463 20.024C72.5161 19.3855 73.4756 19.1786 74.3836 18.9986C79.2166 18.0369 84.0506 17.0741 88.8836 16.1125C89.5501 15.9794 90.2546 15.8497 90.8953 16.0756C91.7116 16.363 92.15 17.0887 92.3535 17.9452V17.943Z" fill="#FDFBFB" stroke="#FDFBFB" stroke-width="0.5" stroke-linecap="round" stroke-linejoin="round"/>
<path d="M58.5505 30.9647C59.8604 30.9647 60.9222 29.9028 60.9222 28.5929C60.9222 27.2831 59.8604 26.2212 58.5505 26.2212C57.2406 26.2212 56.1787 27.2831 56.1787 28.5929C56.1787 29.9028 57.2406 30.9647 58.5505 30.9647Z" fill="#FDFBFB" stroke="#FDFBFB" stroke-width="0.5" stroke-linecap="round" stroke-linejoin="round"/>
<path d="M65.0153 29.5414C66.3252 29.5414 67.3871 28.4795 67.3871 27.1696C67.3871 25.8597 66.3252 24.7979 65.0153 24.7979C63.7054 24.7979 62.6436 25.8597 62.6436 27.1696C62.6436 28.4795 63.7054 29.5414 65.0153 29.5414Z" fill="#FDFBFB" stroke="#FDFBFB" stroke-width="0.5" stroke-linecap="round" stroke-linejoin="round"/>
<path d="M37.5098 71.4194C37.3691 71.4194 37.2461 71.5308 37.1406 71.7534C36.6953 72.6206 36.2207 73.4058 35.7168 74.1089C35.2246 74.812 34.7266 75.4097 34.2227 75.9019C33.7188 76.394 33.2207 76.7749 32.7285 77.0444C32.2363 77.3022 31.7734 77.4312 31.3398 77.4312C30.918 77.4312 30.5254 77.3433 30.1621 77.1675C29.8105 76.98 29.4238 76.6343 29.002 76.1304C28.5918 75.6265 28.1172 74.9292 27.5781 74.0386C27.0508 73.1479 26.4004 71.9878 25.627 70.5581C25.498 70.3237 25.3633 70.1538 25.2227 70.0483C25.0938 69.9312 24.9766 69.8726 24.8711 69.8726C24.7188 69.8726 24.5781 70.0366 24.4492 70.3647C24.3203 70.6812 24.209 71.1323 24.1152 71.7183C24.0215 72.2925 23.9453 72.9897 23.8867 73.8101C23.8398 74.6187 23.8164 75.5151 23.8164 76.4995C23.8164 77.0854 23.8457 77.6714 23.9043 78.2573C23.9746 78.8433 24.0098 79.4468 24.0098 80.0679C24.0098 80.2788 23.9512 80.478 23.834 80.6655C23.7168 80.8413 23.5586 80.9937 23.3594 81.1226C23.1719 81.2632 22.9434 81.3745 22.6738 81.4565C22.416 81.5386 22.1406 81.5796 21.8477 81.5796C21.2617 81.5796 20.8398 81.228 20.582 80.5249C20.3242 79.8218 20.1953 78.6968 20.1953 77.1499C20.1953 75.1929 20.3008 73.4175 20.5117 71.8237C20.7344 70.2183 21.0449 68.8472 21.4434 67.7104C21.8535 66.562 22.334 65.6772 22.8848 65.0562C23.4473 64.4233 24.0742 64.1069 24.7656 64.1069C25.375 64.1069 25.9551 64.4585 26.5059 65.1616C27.0684 65.853 27.6719 66.978 28.3164 68.5366C28.5742 69.1694 28.8496 69.7612 29.1426 70.312C29.4473 70.8628 29.7461 71.3433 30.0391 71.7534C30.3438 72.1519 30.6367 72.4683 30.918 72.7026C31.1992 72.9253 31.4512 73.0366 31.6738 73.0366C31.8965 73.0366 32.1074 72.9897 32.3066 72.896C32.5176 72.7905 32.752 72.5737 33.0098 72.2456C33.2793 71.9058 33.5898 71.4136 33.9414 70.769C34.3047 70.1245 34.75 69.2632 35.2773 68.1851C35.5586 67.6226 35.8105 67.1538 36.0332 66.7788C36.2559 66.4038 36.4785 66.105 36.7012 65.8823C36.9238 65.6479 37.1582 65.4839 37.4043 65.3901C37.6504 65.2847 37.9258 65.2319 38.2305 65.2319C38.5938 65.2319 38.9512 65.4253 39.3027 65.812C39.6543 66.1987 39.9941 66.7144 40.3223 67.3589C40.6621 68.0034 40.9902 68.7534 41.3066 69.6089C41.623 70.4644 41.9277 71.3608 42.2207 72.2983C42.5254 73.2358 42.8184 74.1909 43.0996 75.1636C43.3926 76.1245 43.6738 77.0386 43.9434 77.9058C44.0137 78.1636 44.0605 78.3452 44.084 78.4507C44.1191 78.5444 44.1367 78.6616 44.1367 78.8022C44.1367 79.0015 44.0723 79.2007 43.9434 79.3999C43.8262 79.5874 43.668 79.7573 43.4688 79.9097C43.2695 80.062 43.041 80.1851 42.7832 80.2788C42.5371 80.3726 42.291 80.4194 42.0449 80.4194C41.7168 80.4194 41.459 80.3843 41.2715 80.314C41.0957 80.2319 40.9551 80.0913 40.8496 79.8921C40.791 79.7866 40.6914 79.5054 40.5508 79.0483C40.4102 78.5913 40.2402 78.0522 40.041 77.4312C39.8535 76.7983 39.6426 76.1304 39.4082 75.4272C39.1855 74.7241 38.957 74.0796 38.7227 73.4937C38.5 72.896 38.2832 72.4038 38.0723 72.0171C37.8613 71.6187 37.6738 71.4194 37.5098 71.4194ZM60.4141 77.1499C60.7539 76.8569 61.0879 76.7104 61.416 76.7104C61.6035 76.7104 61.7734 76.7573 61.9258 76.8511C62.0781 76.9448 62.248 77.0913 62.4355 77.2905C62.6113 77.5601 62.7344 77.7827 62.8047 77.9585C62.8867 78.1226 62.9277 78.2866 62.9277 78.4507C62.9277 78.8022 62.752 79.1362 62.4004 79.4526C61.8379 79.9214 61.2285 80.3433 60.5723 80.7183C59.916 81.0815 59.2305 81.3921 58.5156 81.6499C57.8008 81.9077 57.0625 82.1011 56.3008 82.23C55.5391 82.3706 54.7832 82.4409 54.0332 82.4409C53.084 82.4409 52.1934 82.3179 51.3613 82.0718C50.5293 81.8374 49.7852 81.4976 49.1289 81.0522C48.4844 80.6069 47.9395 80.0737 47.4941 79.4526C47.0488 78.8198 46.7324 78.1108 46.5449 77.3257C46.4395 76.9976 46.3398 76.7866 46.2461 76.6929C46.1641 76.5874 46.0234 76.5347 45.8242 76.5347C45.3906 76.5347 45.0566 76.4292 44.8223 76.2183C44.5879 76.0073 44.4707 75.7026 44.4707 75.3042C44.4707 75.1401 44.4824 75.0347 44.5059 74.9878L44.541 74.6362C44.5996 74.2144 44.7109 73.9097 44.875 73.7222C45.0508 73.5347 45.3203 73.4409 45.6836 73.4409H45.9473C46.4395 73.4409 46.7852 73.2124 46.9844 72.7554C47.3477 71.9468 47.8105 71.2085 48.373 70.5405C48.9355 69.8726 49.5684 69.3042 50.2715 68.8354C50.9746 68.355 51.7246 67.9858 52.5215 67.728C53.3301 67.4585 54.1504 67.3237 54.9824 67.3237C55.8496 67.3237 56.6582 67.4526 57.4082 67.7104C58.1699 67.9565 58.832 68.3022 59.3945 68.7476C59.957 69.1929 60.3965 69.7144 60.7129 70.312C61.041 70.9097 61.2051 71.5542 61.2051 72.2456C61.2051 72.7261 61.1113 73.1655 60.9238 73.564C60.7363 73.9624 60.4668 74.314 60.1152 74.6187C59.7637 74.9116 59.3359 75.1519 58.832 75.3394C58.3398 75.5269 57.7773 75.6499 57.1445 75.7085L51.0449 76.3237C50.8105 76.3237 50.6172 76.3823 50.4648 76.4995C50.3242 76.6167 50.2539 76.7749 50.2539 76.9741C50.2539 77.2788 50.3652 77.5718 50.5879 77.853C50.8223 78.1343 51.127 78.3862 51.502 78.6089C51.8887 78.8198 52.3281 78.9897 52.8203 79.1187C53.3242 79.2476 53.8398 79.312 54.3672 79.312C54.8711 79.312 55.3867 79.2651 55.9141 79.1714C56.4531 79.0659 56.9805 78.9194 57.4961 78.7319C58.0234 78.5444 58.5332 78.3218 59.0254 78.064C59.5176 77.7944 59.9805 77.4897 60.4141 77.1499ZM56.4941 72.6147C56.6699 72.5796 56.8223 72.4976 56.9512 72.3687C57.0801 72.228 57.1445 72.0581 57.1445 71.8589C57.1445 71.6831 57.0801 71.519 56.9512 71.3667C56.8223 71.2144 56.6465 71.0796 56.4238 70.9624C56.2012 70.8335 55.9434 70.7339 55.6504 70.6636C55.3574 70.5933 55.0469 70.5581 54.7188 70.5581C54.2383 70.5581 53.7461 70.6284 53.2422 70.769C52.7383 70.9097 52.2812 71.0972 51.8711 71.3315C51.4609 71.5542 51.127 71.8062 50.8691 72.0874C50.6113 72.3569 50.4824 72.6265 50.4824 72.896C50.4824 73.1655 50.6465 73.3003 50.9746 73.3003C51.1738 73.3003 51.4961 73.2769 51.9414 73.23C52.3867 73.1831 52.8789 73.1304 53.418 73.0718C53.957 73.0015 54.502 72.9253 55.0527 72.8433C55.6035 72.7612 56.084 72.6851 56.4941 72.6147ZM75.8125 68.1499C75.8594 68.1733 75.9297 68.1851 76.0234 68.1851C76.2812 68.1851 76.4102 68.0151 76.4102 67.6753V62.2085C76.4102 61.5171 76.5625 61.0249 76.8672 60.7319C77.1836 60.439 77.7051 60.2925 78.4316 60.2925C79.1699 60.2925 79.6914 60.4448 79.9961 60.7495C80.3008 61.0542 80.4531 61.5757 80.4531 62.314C80.4531 62.5952 80.4355 63.0112 80.4004 63.562C80.3652 64.1011 80.3242 64.7163 80.2773 65.4077C80.2422 66.0991 80.207 66.8433 80.1719 67.6401C80.1367 68.4253 80.1191 69.2046 80.1191 69.978C80.1191 71.1733 80.2012 72.2046 80.3652 73.0718C80.5293 73.939 80.7637 74.6597 81.0684 75.2339C81.373 75.7964 81.7363 76.2183 82.1582 76.4995C82.5801 76.769 83.0547 76.9038 83.582 76.9038C83.875 76.9038 84.1387 76.8687 84.373 76.7983C84.6191 76.7163 84.9062 76.6753 85.2344 76.6753C85.4688 76.6753 85.6621 76.7983 85.8145 77.0444C85.9785 77.2788 86.0605 77.5659 86.0605 77.9058C86.0605 78.2104 85.9668 78.4976 85.7793 78.7671C85.6035 79.0366 85.3574 79.271 85.041 79.4702C84.7363 79.6694 84.3789 79.8276 83.9688 79.9448C83.5586 80.0503 83.1309 80.103 82.6855 80.103C81.7246 80.103 80.8457 79.8101 80.0488 79.2241C79.252 78.6265 78.6543 77.7183 78.2559 76.4995C78.2207 76.312 78.1621 76.2183 78.0801 76.2183C77.9863 76.2183 77.9102 76.312 77.8516 76.4995C77.5352 77.355 77.1191 78.1284 76.6035 78.8198C76.0996 79.4995 75.5078 80.0854 74.8281 80.5776C74.1602 81.0581 73.4219 81.4272 72.6133 81.6851C71.8164 81.9429 70.9727 82.0718 70.082 82.0718C69.1445 82.0718 68.2832 81.9136 67.498 81.5972C66.7246 81.2925 66.0566 80.8647 65.4941 80.314C64.9316 79.7515 64.4922 79.0952 64.1758 78.3452C63.8594 77.5835 63.7012 76.7632 63.7012 75.8843C63.7012 74.7593 63.9355 73.6987 64.4043 72.7026C64.873 71.7065 65.5059 70.8394 66.3027 70.1011C67.1113 69.3511 68.0488 68.7593 69.1152 68.3257C70.1816 67.8921 71.3184 67.6753 72.5254 67.6753C73.0176 67.6753 73.5391 67.7163 74.0898 67.7983C74.6406 67.8687 75.2148 67.9858 75.8125 68.1499ZM70.7676 78.9077C71.4355 78.9077 72.0273 78.7612 72.543 78.4683C73.0703 78.1753 73.5332 77.8062 73.9316 77.3608C74.3418 76.9038 74.6875 76.4058 74.9688 75.8667C75.25 75.3159 75.4785 74.7827 75.6543 74.2671C75.8301 73.7515 75.959 73.2886 76.041 72.8784C76.123 72.4683 76.1641 72.1753 76.1641 71.9995C76.1641 71.8706 76.1289 71.7593 76.0586 71.6655C75.9883 71.5601 75.8828 71.478 75.7422 71.4194C75.4258 71.3374 75.0977 71.2671 74.7578 71.2085C74.418 71.1382 74.084 71.0796 73.7559 71.0327C73.4277 70.9858 73.1113 70.9507 72.8066 70.9272C72.5137 70.9038 72.2441 70.8921 71.998 70.8921C71.2949 70.8921 70.6562 70.9976 70.082 71.2085C69.5078 71.4194 69.0156 71.7183 68.6055 72.105C68.207 72.4917 67.8965 72.9546 67.6738 73.4937C67.4512 74.021 67.3398 74.6011 67.3398 75.2339C67.3398 75.7964 67.4219 76.3062 67.5859 76.7632C67.7617 77.2085 67.9961 77.5894 68.2891 77.9058C68.5938 78.2222 68.957 78.4683 69.3789 78.644C69.8008 78.8198 70.2637 78.9077 70.7676 78.9077ZM87.7832 63.0698C87.4434 63.0698 87.1211 63.0229 86.8164 62.9292C86.5234 62.8237 86.2656 62.6831 86.043 62.5073C85.832 62.3198 85.6621 62.103 85.5332 61.8569C85.4043 61.6108 85.3398 61.3413 85.3398 61.0483C85.3398 60.5562 85.5332 60.1577 85.9199 59.853C86.3184 59.5483 86.8457 59.396 87.502 59.396C87.8066 59.396 88.0996 59.4546 88.3809 59.5718C88.6621 59.6772 88.9082 59.8237 89.1191 60.0112C89.3418 60.1987 89.5176 60.4214 89.6465 60.6792C89.7754 60.9253 89.8398 61.1831 89.8398 61.4526C89.8398 61.9565 89.6523 62.355 89.2773 62.6479C88.9141 62.9292 88.416 63.0698 87.7832 63.0698ZM85.375 68.4312C85.375 68.021 85.5508 67.687 85.9023 67.4292C86.2656 67.1597 86.7402 67.0249 87.3262 67.0249C88.3809 67.0249 88.9434 67.3882 89.0137 68.1147C89.0605 68.6187 89.1074 69.187 89.1543 69.8198C89.2129 70.4526 89.2656 71.1265 89.3125 71.8413C89.3711 72.5444 89.418 73.2769 89.4531 74.0386C89.5 74.7886 89.541 75.5327 89.5762 76.271C89.6113 76.9976 89.6406 77.7007 89.6641 78.3804C89.6875 79.0601 89.6992 79.6812 89.6992 80.2437C89.6992 80.8296 89.4883 81.269 89.0664 81.562C88.6562 81.855 88.0527 82.0015 87.2559 82.0015C86.8926 82.0015 86.6055 81.9136 86.3945 81.7378C86.1953 81.5737 86.0957 81.3276 86.0957 80.9995C86.0957 79.3823 86.0547 77.8706 85.9727 76.4644C85.9023 75.0464 85.8203 73.7866 85.7266 72.6851C85.6445 71.5835 85.5625 70.6694 85.4805 69.9429C85.4102 69.2046 85.375 68.7007 85.375 68.4312ZM93.1797 75.1636C93.1797 74.9644 93.2031 74.7417 93.25 74.4956C93.2969 74.2495 93.3203 73.98 93.3203 73.687C93.3203 73.4878 93.2324 73.3354 93.0566 73.23C92.8926 73.1245 92.7051 73.0073 92.4941 72.8784C92.2832 72.7495 92.0898 72.5854 91.9141 72.3862C91.75 72.187 91.668 71.8999 91.668 71.5249C91.668 71.2554 91.7383 70.9858 91.8789 70.7163C92.0312 70.4468 92.248 70.2007 92.5293 69.978C93.2207 69.4624 93.9355 68.9995 94.6738 68.5894C95.4238 68.1792 96.168 67.8335 96.9062 67.5522C97.6562 67.271 98.3945 67.0542 99.1211 66.9019C99.8477 66.7495 100.545 66.6733 101.213 66.6733C102.338 66.6733 103.393 66.8843 104.377 67.3062C105.373 67.7163 106.234 68.2847 106.961 69.0112C107.699 69.7261 108.279 70.5698 108.701 71.5425C109.135 72.5034 109.352 73.5347 109.352 74.6362C109.352 75.7144 109.123 76.7397 108.666 77.7124C108.221 78.6733 107.617 79.5171 106.855 80.2437C106.094 80.9702 105.197 81.5444 104.166 81.9663C103.146 82.3999 102.068 82.6167 100.932 82.6167C99.8184 82.6167 98.7871 82.4292 97.8379 82.0542C96.8887 81.6792 96.0684 81.1636 95.377 80.5073C94.6855 79.8394 94.1465 79.0542 93.7598 78.1519C93.373 77.2378 93.1797 76.2417 93.1797 75.1636ZM101.318 79.4526C101.811 79.4526 102.32 79.353 102.848 79.1538C103.375 78.9546 103.855 78.6675 104.289 78.2925C104.734 77.9058 105.098 77.437 105.379 76.8862C105.672 76.3354 105.818 75.7144 105.818 75.0229C105.818 74.3198 105.689 73.6636 105.432 73.0542C105.174 72.4448 104.816 71.9175 104.359 71.4722C103.914 71.0151 103.381 70.6577 102.76 70.3999C102.15 70.1421 101.488 70.0132 100.773 70.0132C99.4727 70.0132 98.4766 70.353 97.7852 71.0327C97.0938 71.7007 96.748 72.7319 96.748 74.1265C96.748 74.8882 96.8594 75.5972 97.082 76.2534C97.3164 76.8979 97.6387 77.4604 98.0488 77.9409C98.459 78.4097 98.9395 78.7788 99.4902 79.0483C100.053 79.3179 100.662 79.4526 101.318 79.4526Z" fill="#FDFBFB"/>
<path d="M8.85938 87.6714C8.20312 87.6714 7.59375 87.8296 7.03125 88.146C6.48047 88.4507 5.99414 88.8784 5.57227 89.4292C5.16211 89.9683 4.83984 90.6069 4.60547 91.3452C4.37109 92.0835 4.25391 92.8745 4.25391 93.7183C4.25391 94.5854 4.44727 95.3882 4.83398 96.1265C5.23242 96.853 5.77734 97.4917 6.46875 98.0425C7.17188 98.5815 7.99219 99.0034 8.92969 99.3081C9.87891 99.6128 10.9102 99.7651 12.0234 99.7651C12.832 99.7651 13.5938 99.6948 14.3086 99.5542C15.0352 99.4019 15.668 99.2026 16.207 98.9565C16.7461 98.7104 17.1738 98.4233 17.4902 98.0952C17.8066 97.7554 17.9648 97.3979 17.9648 97.0229C17.9648 96.73 17.9121 96.4897 17.8066 96.3022C17.7012 96.103 17.5781 95.9272 17.4375 95.7749C17.3086 95.6108 17.1914 95.4526 17.0859 95.3003C16.9805 95.1362 16.9277 94.9312 16.9277 94.6851C16.9277 94.4507 16.9863 94.228 17.1035 94.0171C17.2207 93.8062 17.3789 93.6187 17.5781 93.4546C17.7891 93.2905 18.0234 93.1616 18.2812 93.0679C18.5508 92.9741 18.8262 92.9272 19.1074 92.9272C19.4473 92.9272 19.7637 93.0151 20.0566 93.1909C20.3613 93.3667 20.6191 93.6128 20.8301 93.9292C21.0527 94.2339 21.2227 94.5972 21.3398 95.019C21.4688 95.4292 21.5332 95.8687 21.5332 96.3374C21.5332 97.2866 21.2812 98.1714 20.7773 98.9917C20.2734 99.8003 19.5762 100.498 18.6855 101.083C17.7949 101.669 16.7402 102.132 15.5215 102.472C14.3027 102.8 12.9785 102.964 11.5488 102.964C9.9668 102.964 8.50781 102.753 7.17188 102.332C5.83594 101.898 4.68164 101.3 3.70898 100.539C2.74805 99.7769 1.99805 98.8745 1.45898 97.8315C0.919922 96.7886 0.650391 95.646 0.650391 94.4038C0.650391 93.0444 0.884766 91.7612 1.35352 90.5542C1.83398 89.3472 2.48438 88.2925 3.30469 87.3901C4.125 86.4878 5.08008 85.7729 6.16992 85.2456C7.27148 84.7183 8.44336 84.4546 9.68555 84.4546C10.2363 84.4546 10.7402 84.519 11.1973 84.6479C11.666 84.7651 12.0703 84.9351 12.4102 85.1577C12.75 85.3804 13.0137 85.644 13.2012 85.9487C13.4004 86.2417 13.5 86.564 13.5 86.9155C13.5 87.1968 13.4355 87.4663 13.3066 87.7241C13.1895 87.9702 13.0312 88.1929 12.832 88.3921C12.6328 88.5796 12.3984 88.7319 12.1289 88.8491C11.8711 88.9663 11.5957 89.0249 11.3027 89.0249C10.998 89.0249 10.752 88.9546 10.5645 88.814C10.3887 88.6733 10.2246 88.521 10.0723 88.3569C9.91992 88.1812 9.75586 88.0229 9.58008 87.8823C9.4043 87.7417 9.16406 87.6714 8.85938 87.6714ZM30.498 89.8511C30.0645 89.8511 29.6836 89.9683 29.3555 90.2026C29.0273 90.4253 28.7461 90.7417 28.5117 91.1519C28.2773 91.5503 28.084 92.0249 27.9316 92.5757C27.7793 93.1147 27.6562 93.7065 27.5625 94.3511C27.4688 94.9956 27.4043 95.6694 27.3691 96.3726C27.334 97.0757 27.3164 97.7847 27.3164 98.4995C27.3164 99.437 27.3516 100.363 27.4219 101.277C27.5039 102.179 27.5449 103.017 27.5449 103.791C27.5449 104.294 27.3574 104.687 26.9824 104.968C26.6074 105.261 26.0742 105.408 25.3828 105.408C25.2539 105.408 25.1074 105.396 24.9434 105.373C24.7793 105.349 24.6211 105.302 24.4688 105.232C24.3281 105.162 24.1992 105.062 24.082 104.933C23.9766 104.816 23.918 104.652 23.9062 104.441C23.8008 103.41 23.6484 102.355 23.4492 101.277C23.25 100.199 22.998 99.1265 22.6934 98.0601C22.4004 96.9819 22.043 95.9155 21.6211 94.8608C21.2109 93.8062 20.7363 92.7749 20.1973 91.7671C20.1035 91.5913 20.0215 91.4272 19.9512 91.2749C19.8926 91.1226 19.8633 90.9761 19.8633 90.8354C19.8633 90.6597 19.9395 90.4722 20.0918 90.2729C20.2559 90.062 20.4551 89.8687 20.6895 89.6929C20.9355 89.5171 21.1992 89.3765 21.4805 89.271C21.7734 89.1538 22.0547 89.0952 22.3242 89.0952C22.7695 89.0952 23.1621 89.4058 23.502 90.0269C23.8418 90.6362 24.1582 91.6147 24.4512 92.9624C24.5098 93.1968 24.5566 93.3608 24.5918 93.4546C24.627 93.5483 24.6738 93.5952 24.7324 93.5952C24.8613 93.5952 24.9434 93.396 24.9785 92.9976C25.1191 91.8843 25.3594 90.9292 25.6992 90.1323C26.0391 89.3237 26.4609 88.6616 26.9648 88.146C27.4805 87.6187 28.0664 87.2319 28.7227 86.9858C29.3906 86.7397 30.123 86.6167 30.9199 86.6167C31.377 86.6167 31.8398 86.6577 32.3086 86.7397C32.7773 86.8218 33.1992 86.9448 33.5742 87.1089C33.9492 87.2729 34.2539 87.4722 34.4883 87.7065C34.7227 87.9409 34.8398 88.2046 34.8398 88.4976C34.8398 88.7085 34.793 88.9604 34.6992 89.2534C34.6172 89.5347 34.5059 89.8101 34.3652 90.0796C34.2246 90.3374 34.0605 90.5601 33.873 90.7476C33.6973 90.9233 33.5156 91.0112 33.3281 91.0112C33.1172 91.0112 32.9121 90.9526 32.7129 90.8354C32.5137 90.7065 32.2969 90.5718 32.0625 90.4312C31.8398 90.2905 31.5996 90.1616 31.3418 90.0444C31.0957 89.9155 30.8145 89.8511 30.498 89.8511ZM48.6914 99.1499C49.0312 98.8569 49.3652 98.7104 49.6934 98.7104C49.8809 98.7104 50.0508 98.7573 50.2031 98.8511C50.3555 98.9448 50.5254 99.0913 50.7129 99.2905C50.8887 99.5601 51.0117 99.7827 51.082 99.9585C51.1641 100.123 51.2051 100.287 51.2051 100.451C51.2051 100.802 51.0293 101.136 50.6777 101.453C50.1152 101.921 49.5059 102.343 48.8496 102.718C48.1934 103.082 47.5078 103.392 46.793 103.65C46.0781 103.908 45.3398 104.101 44.5781 104.23C43.8164 104.371 43.0605 104.441 42.3105 104.441C41.3613 104.441 40.4707 104.318 39.6387 104.072C38.8066 103.837 38.0625 103.498 37.4062 103.052C36.7617 102.607 36.2168 102.074 35.7715 101.453C35.3262 100.82 35.0098 100.111 34.8223 99.3257C34.7168 98.9976 34.6172 98.7866 34.5234 98.6929C34.4414 98.5874 34.3008 98.5347 34.1016 98.5347C33.668 98.5347 33.334 98.4292 33.0996 98.2183C32.8652 98.0073 32.748 97.7026 32.748 97.3042C32.748 97.1401 32.7598 97.0347 32.7832 96.9878L32.8184 96.6362C32.877 96.2144 32.9883 95.9097 33.1523 95.7222C33.3281 95.5347 33.5977 95.4409 33.9609 95.4409H34.2246C34.7168 95.4409 35.0625 95.2124 35.2617 94.7554C35.625 93.9468 36.0879 93.2085 36.6504 92.5405C37.2129 91.8726 37.8457 91.3042 38.5488 90.8354C39.252 90.355 40.002 89.9858 40.7988 89.728C41.6074 89.4585 42.4277 89.3237 43.2598 89.3237C44.127 89.3237 44.9355 89.4526 45.6855 89.7104C46.4473 89.9565 47.1094 90.3022 47.6719 90.7476C48.2344 91.1929 48.6738 91.7144 48.9902 92.312C49.3184 92.9097 49.4824 93.5542 49.4824 94.2456C49.4824 94.7261 49.3887 95.1655 49.2012 95.564C49.0137 95.9624 48.7441 96.314 48.3926 96.6187C48.041 96.9116 47.6133 97.1519 47.1094 97.3394C46.6172 97.5269 46.0547 97.6499 45.4219 97.7085L39.3223 98.3237C39.0879 98.3237 38.8945 98.3823 38.7422 98.4995C38.6016 98.6167 38.5312 98.7749 38.5312 98.9741C38.5312 99.2788 38.6426 99.5718 38.8652 99.853C39.0996 100.134 39.4043 100.386 39.7793 100.609C40.166 100.82 40.6055 100.99 41.0977 101.119C41.6016 101.248 42.1172 101.312 42.6445 101.312C43.1484 101.312 43.6641 101.265 44.1914 101.171C44.7305 101.066 45.2578 100.919 45.7734 100.732C46.3008 100.544 46.8105 100.322 47.3027 100.064C47.7949 99.7944 48.2578 99.4897 48.6914 99.1499ZM44.7715 94.6147C44.9473 94.5796 45.0996 94.4976 45.2285 94.3687C45.3574 94.228 45.4219 94.0581 45.4219 93.8589C45.4219 93.6831 45.3574 93.519 45.2285 93.3667C45.0996 93.2144 44.9238 93.0796 44.7012 92.9624C44.4785 92.8335 44.2207 92.7339 43.9277 92.6636C43.6348 92.5933 43.3242 92.5581 42.9961 92.5581C42.5156 92.5581 42.0234 92.6284 41.5195 92.769C41.0156 92.9097 40.5586 93.0972 40.1484 93.3315C39.7383 93.5542 39.4043 93.8062 39.1465 94.0874C38.8887 94.3569 38.7598 94.6265 38.7598 94.896C38.7598 95.1655 38.9238 95.3003 39.252 95.3003C39.4512 95.3003 39.7734 95.2769 40.2188 95.23C40.6641 95.1831 41.1562 95.1304 41.6953 95.0718C42.2344 95.0015 42.7793 94.9253 43.3301 94.8433C43.8809 94.7612 44.3613 94.6851 44.7715 94.6147ZM63.3691 87.6362C64.0137 87.6362 64.6348 87.7358 65.2324 87.9351C65.8301 88.1343 66.3574 88.4097 66.8145 88.7612C67.2715 89.1128 67.6348 89.5347 67.9043 90.0269C68.1855 90.519 68.3262 91.064 68.3262 91.6616C68.3262 91.9077 68.2676 92.1479 68.1504 92.3823C68.0449 92.605 67.8984 92.8042 67.7109 92.98C67.5234 93.144 67.3066 93.2788 67.0605 93.3843C66.8262 93.478 66.5801 93.5249 66.3223 93.5249C66.2988 93.5249 66.2754 93.5308 66.252 93.5425C66.2402 93.5425 66.2227 93.5425 66.1992 93.5425C66.1758 93.5542 66.1523 93.5601 66.1289 93.5601L66.1992 94.9663C66.2461 96.6421 66.4805 97.8667 66.9023 98.6401C67.3359 99.4136 67.8984 99.8003 68.5898 99.8003C68.8359 99.8003 69.0527 99.7769 69.2402 99.73C69.4395 99.6831 69.6211 99.6304 69.7852 99.5718C69.9609 99.5015 70.125 99.4429 70.2773 99.396C70.4297 99.3491 70.582 99.3257 70.7344 99.3257C71.0039 99.3257 71.2383 99.4429 71.4375 99.6772C71.6484 99.9116 71.7539 100.193 71.7539 100.521C71.7539 100.849 71.625 101.177 71.3672 101.505C71.1211 101.833 70.793 102.132 70.3828 102.402C69.9727 102.66 69.5098 102.871 68.9941 103.035C68.4785 103.199 67.957 103.281 67.4297 103.281C66.5156 103.281 65.7129 102.906 65.0215 102.156C64.3301 101.394 63.8379 100.281 63.5449 98.8159C63.4746 98.5815 63.3809 98.4644 63.2637 98.4644C63.123 98.4644 63 98.5347 62.8945 98.6753C61.7344 100.14 60.498 101.242 59.1855 101.98C57.873 102.707 56.5781 103.07 55.3008 103.07C54.7031 103.07 54.1641 102.982 53.6836 102.806C53.2031 102.63 52.793 102.384 52.4531 102.068C52.125 101.74 51.8672 101.347 51.6797 100.89C51.5039 100.421 51.416 99.8999 51.416 99.3257C51.416 98.5171 51.5918 97.6675 51.9434 96.7769C52.3066 95.8862 52.793 95.0073 53.4023 94.1401C54.0117 93.2729 54.7148 92.4468 55.5117 91.6616C56.3203 90.8765 57.1641 90.1851 58.043 89.5874C58.9336 88.9897 59.8359 88.5151 60.75 88.1636C61.6641 87.812 62.5371 87.6362 63.3691 87.6362ZM62.7891 93.7183C63 93.3198 63.1934 93.0327 63.3691 92.8569C63.5449 92.6694 63.7969 92.5464 64.125 92.4878C64.3828 92.4526 64.5117 92.3706 64.5117 92.2417C64.5117 92.1479 64.4766 92.0483 64.4062 91.9429C64.1836 91.6382 63.9492 91.3745 63.7031 91.1519C63.457 90.9175 63.1289 90.8003 62.7188 90.8003C62.2734 90.8003 61.7754 90.9292 61.2246 91.187C60.6738 91.4448 60.1113 91.7905 59.5371 92.2241C58.9746 92.646 58.418 93.1323 57.8672 93.6831C57.3281 94.2222 56.8477 94.7788 56.4258 95.353C56.0039 95.9272 55.6641 96.4956 55.4062 97.0581C55.1484 97.6206 55.0195 98.1245 55.0195 98.5698C55.0195 98.9683 55.125 99.2788 55.3359 99.5015C55.5586 99.7241 55.8574 99.8354 56.2324 99.8354C57.1934 99.8354 58.2422 99.3257 59.3789 98.3062C60.5156 97.2866 61.6523 95.7573 62.7891 93.7183ZM73.9688 82.6968C73.9688 82.0757 74.1445 81.6421 74.4961 81.396C74.8477 81.1382 75.4277 81.0093 76.2363 81.0093C76.5293 81.0093 76.7754 81.0386 76.9746 81.0972C77.1855 81.144 77.3613 81.2378 77.502 81.3784C77.6543 81.519 77.7715 81.7065 77.8535 81.9409C77.9473 82.1636 78.0234 82.4507 78.082 82.8022C78.2227 83.8921 78.375 85.0171 78.5391 86.1772C78.7148 87.3374 78.8965 88.5034 79.084 89.6753C79.1543 90.2026 79.4297 90.4663 79.9102 90.4663C80.0391 90.4663 80.25 90.4546 80.543 90.4312C80.8477 90.396 81.2051 90.3608 81.6152 90.3257C82.0254 90.2788 82.4648 90.2319 82.9336 90.1851C83.4141 90.1382 83.8887 90.0972 84.3574 90.062C84.8379 90.0151 85.2891 89.98 85.7109 89.9565C86.1445 89.9214 86.5254 89.9038 86.8535 89.9038C87.1113 89.9038 87.3164 89.9565 87.4688 90.062C87.6211 90.1558 87.7383 90.2847 87.8203 90.4487C87.9141 90.6011 87.9727 90.7769 87.9961 90.9761C88.0312 91.1636 88.0488 91.3569 88.0488 91.5562C88.0488 91.7319 88.0137 91.9136 87.9434 92.1011C87.8848 92.2886 87.7969 92.4585 87.6797 92.6108C87.5742 92.7515 87.4395 92.8687 87.2754 92.9624C87.1113 93.0562 86.9238 93.103 86.7129 93.103C85.6934 93.103 84.6621 93.1382 83.6191 93.2085C82.5879 93.2671 81.5566 93.3491 80.5254 93.4546C79.998 93.5249 79.7344 93.7886 79.7344 94.2456C79.7344 94.2808 79.7402 94.3276 79.752 94.3862C79.7637 94.4331 79.7695 94.4741 79.7695 94.5093C79.9102 95.5288 80.0391 96.4839 80.1562 97.3745C80.2852 98.2651 80.3906 99.062 80.4727 99.7651C80.5664 100.457 80.6367 101.037 80.6836 101.505C80.7422 101.962 80.7715 102.267 80.7715 102.419C80.7715 102.841 80.7305 103.193 80.6484 103.474C80.5664 103.767 80.4316 104.001 80.2441 104.177C80.0566 104.365 79.8047 104.494 79.4883 104.564C79.1836 104.646 78.7969 104.687 78.3281 104.687C77.8828 104.687 77.5547 104.582 77.3438 104.371C77.1328 104.16 77.0156 103.837 76.9922 103.404C76.9219 102.021 76.8105 100.632 76.6582 99.2378C76.5059 97.8315 76.3301 96.4312 76.1309 95.0366C76.0254 94.5327 75.7617 94.2808 75.3398 94.2808C75.3047 94.2808 75.2637 94.2866 75.2168 94.2983C75.1699 94.3101 75.1289 94.3159 75.0938 94.3159C74.3672 94.48 73.6816 94.644 73.0371 94.8081C72.3926 94.9722 71.7891 95.1479 71.2266 95.3354C70.9102 95.4409 70.6289 95.5171 70.3828 95.564C70.1367 95.5991 69.9141 95.6167 69.7148 95.6167C69.4453 95.6167 69.2461 95.4995 69.1172 95.2651C68.9883 95.019 68.9238 94.7144 68.9238 94.3511C68.9238 94.2222 68.9355 94.0757 68.959 93.9116C68.9824 93.7358 69.0293 93.5659 69.0996 93.4019C69.1582 93.2261 69.252 93.0679 69.3809 92.9272C69.498 92.7749 69.6621 92.6519 69.873 92.5581C70.3652 92.3589 71.0215 92.1538 71.8418 91.9429C72.6621 91.7202 73.5879 91.5151 74.6191 91.3276C74.8535 91.269 75.0352 91.1753 75.1641 91.0464C75.3047 90.9058 75.375 90.7007 75.375 90.4312C75.375 90.3726 75.375 90.314 75.375 90.2554C75.375 90.1851 75.3633 90.1147 75.3398 90.0444C75.1523 88.9663 74.9707 87.9878 74.7949 87.1089C74.6309 86.2183 74.4844 85.4565 74.3555 84.8237C74.2383 84.1909 74.1445 83.6929 74.0742 83.3296C74.0039 82.9663 73.9688 82.7554 73.9688 82.6968ZM89.666 85.0698C89.3262 85.0698 89.0039 85.0229 88.6992 84.9292C88.4062 84.8237 88.1484 84.6831 87.9258 84.5073C87.7148 84.3198 87.5449 84.103 87.416 83.8569C87.2871 83.6108 87.2227 83.3413 87.2227 83.0483C87.2227 82.5562 87.416 82.1577 87.8027 81.853C88.2012 81.5483 88.7285 81.396 89.3848 81.396C89.6895 81.396 89.9824 81.4546 90.2637 81.5718C90.5449 81.6772 90.791 81.8237 91.002 82.0112C91.2246 82.1987 91.4004 82.4214 91.5293 82.6792C91.6582 82.9253 91.7227 83.1831 91.7227 83.4526C91.7227 83.9565 91.5352 84.355 91.1602 84.6479C90.7969 84.9292 90.2988 85.0698 89.666 85.0698ZM87.2578 90.4312C87.2578 90.021 87.4336 89.687 87.7852 89.4292C88.1484 89.1597 88.623 89.0249 89.209 89.0249C90.2637 89.0249 90.8262 89.3882 90.8965 90.1147C90.9434 90.6187 90.9902 91.187 91.0371 91.8198C91.0957 92.4526 91.1484 93.1265 91.1953 93.8413C91.2539 94.5444 91.3008 95.2769 91.3359 96.0386C91.3828 96.7886 91.4238 97.5327 91.459 98.271C91.4941 98.9976 91.5234 99.7007 91.5469 100.38C91.5703 101.06 91.582 101.681 91.582 102.244C91.582 102.83 91.3711 103.269 90.9492 103.562C90.5391 103.855 89.9355 104.001 89.1387 104.001C88.7754 104.001 88.4883 103.914 88.2773 103.738C88.0781 103.574 87.9785 103.328 87.9785 103C87.9785 101.382 87.9375 99.8706 87.8555 98.4644C87.7852 97.0464 87.7031 95.7866 87.6094 94.6851C87.5273 93.5835 87.4453 92.6694 87.3633 91.9429C87.293 91.2046 87.2578 90.7007 87.2578 90.4312ZM104.238 89.4292C104.273 89.1011 104.314 88.8315 104.361 88.6206C104.42 88.3979 104.502 88.2222 104.607 88.0933C104.725 87.9526 104.871 87.853 105.047 87.7944C105.223 87.7358 105.445 87.7065 105.715 87.7065C106.57 87.7065 107.197 87.8354 107.596 88.0933C108.006 88.3394 108.211 88.7378 108.211 89.2886C108.211 89.394 108.188 89.6284 108.141 89.9917C108.105 90.3433 108.053 90.7827 107.982 91.3101C107.912 91.8257 107.83 92.3999 107.736 93.0327C107.654 93.6538 107.572 94.2866 107.49 94.9312C107.279 96.4312 107.039 98.1128 106.77 99.9761C106.605 101.078 106.277 101.869 105.785 102.349C105.305 102.83 104.59 103.07 103.641 103.07C102.926 103.07 102.188 102.888 101.426 102.525C100.664 102.162 99.9258 101.669 99.2109 101.048C98.4961 100.427 97.8164 99.7065 97.1719 98.8862C96.5391 98.0542 95.9824 97.1753 95.502 96.2495C95.0215 95.312 94.6406 94.3569 94.3594 93.3843C94.0898 92.4116 93.9551 91.4624 93.9551 90.5366C93.9551 89.4937 94.1016 88.7144 94.3945 88.1987C94.6992 87.6714 95.2207 87.4077 95.959 87.4077C96.4746 87.4077 96.9023 87.4429 97.2422 87.5132C97.582 87.5718 97.8516 87.6831 98.0508 87.8472C98.2617 87.9995 98.4082 88.2046 98.4902 88.4624C98.584 88.7202 98.6309 89.0425 98.6309 89.4292C98.6309 89.687 98.6191 89.9448 98.5957 90.2026C98.5723 90.4604 98.5605 90.7183 98.5605 90.9761C98.5605 91.5737 98.6191 92.2007 98.7363 92.8569C98.8652 93.5015 99.0352 94.1343 99.2461 94.7554C99.457 95.3765 99.7031 95.9683 99.9844 96.5308C100.266 97.0815 100.564 97.5679 100.881 97.9897C101.197 98.4116 101.514 98.7456 101.83 98.9917C102.158 99.2378 102.475 99.3608 102.779 99.3608C102.99 99.3608 103.148 99.2905 103.254 99.1499C103.371 99.0093 103.447 98.769 103.482 98.4292L104.238 89.4292ZM121.764 87.6362C122.408 87.6362 123.029 87.7358 123.627 87.9351C124.225 88.1343 124.752 88.4097 125.209 88.7612C125.666 89.1128 126.029 89.5347 126.299 90.0269C126.58 90.519 126.721 91.064 126.721 91.6616C126.721 91.9077 126.662 92.1479 126.545 92.3823C126.439 92.605 126.293 92.8042 126.105 92.98C125.918 93.144 125.701 93.2788 125.455 93.3843C125.221 93.478 124.975 93.5249 124.717 93.5249C124.693 93.5249 124.67 93.5308 124.646 93.5425C124.635 93.5425 124.617 93.5425 124.594 93.5425C124.57 93.5542 124.547 93.5601 124.523 93.5601L124.594 94.9663C124.641 96.6421 124.875 97.8667 125.297 98.6401C125.73 99.4136 126.293 99.8003 126.984 99.8003C127.23 99.8003 127.447 99.7769 127.635 99.73C127.834 99.6831 128.016 99.6304 128.18 99.5718C128.355 99.5015 128.52 99.4429 128.672 99.396C128.824 99.3491 128.977 99.3257 129.129 99.3257C129.398 99.3257 129.633 99.4429 129.832 99.6772C130.043 99.9116 130.148 100.193 130.148 100.521C130.148 100.849 130.02 101.177 129.762 101.505C129.516 101.833 129.188 102.132 128.777 102.402C128.367 102.66 127.904 102.871 127.389 103.035C126.873 103.199 126.352 103.281 125.824 103.281C124.91 103.281 124.107 102.906 123.416 102.156C122.725 101.394 122.232 100.281 121.939 98.8159C121.869 98.5815 121.775 98.4644 121.658 98.4644C121.518 98.4644 121.395 98.5347 121.289 98.6753C120.129 100.14 118.893 101.242 117.58 101.98C116.268 102.707 114.973 103.07 113.695 103.07C113.098 103.07 112.559 102.982 112.078 102.806C111.598 102.63 111.188 102.384 110.848 102.068C110.52 101.74 110.262 101.347 110.074 100.89C109.898 100.421 109.811 99.8999 109.811 99.3257C109.811 98.5171 109.986 97.6675 110.338 96.7769C110.701 95.8862 111.188 95.0073 111.797 94.1401C112.406 93.2729 113.109 92.4468 113.906 91.6616C114.715 90.8765 115.559 90.1851 116.438 89.5874C117.328 88.9897 118.23 88.5151 119.145 88.1636C120.059 87.812 120.932 87.6362 121.764 87.6362ZM121.184 93.7183C121.395 93.3198 121.588 93.0327 121.764 92.8569C121.939 92.6694 122.191 92.5464 122.52 92.4878C122.777 92.4526 122.906 92.3706 122.906 92.2417C122.906 92.1479 122.871 92.0483 122.801 91.9429C122.578 91.6382 122.344 91.3745 122.098 91.1519C121.852 90.9175 121.523 90.8003 121.113 90.8003C120.668 90.8003 120.17 90.9292 119.619 91.187C119.068 91.4448 118.506 91.7905 117.932 92.2241C117.369 92.646 116.812 93.1323 116.262 93.6831C115.723 94.2222 115.242 94.7788 114.82 95.353C114.398 95.9272 114.059 96.4956 113.801 97.0581C113.543 97.6206 113.414 98.1245 113.414 98.5698C113.414 98.9683 113.52 99.2788 113.73 99.5015C113.953 99.7241 114.252 99.8354 114.627 99.8354C115.588 99.8354 116.637 99.3257 117.773 98.3062C118.91 97.2866 120.047 95.7573 121.184 93.7183Z" fill="#FDFBFB"/>
</svg>
