<svg width="199" height="58" viewBox="0 0 199 58" fill="none" xmlns="http://www.w3.org/2000/svg">
<path d="M36.2356 11.7373C36.2266 12.69 35.9202 13.6293 35.2828 14.3327C34.376 15.3346 32.8641 15.7361 31.5782 15.3234C30.8703 15.0964 30.2486 14.6536 29.5464 14.4098C28.4986 14.0464 27.3468 14.1504 26.2577 14.3629C21.2033 15.348 16.6532 18.6692 14.1752 23.1834C13.6553 24.1317 13.2091 25.1448 12.4543 25.9197C10.7892 27.6284 7.58217 26.8725 7.50166 24.2592C7.46588 23.1085 8.01492 22.0272 8.5964 21.0331C11.1527 16.6586 14.6795 12.7716 19.0977 10.2914C23.5169 7.81231 28.8654 6.82716 33.7654 8.11423C34.1378 8.21152 34.5135 8.32558 34.8356 8.53581C35.3063 8.8422 35.6295 9.33422 35.8531 9.8486C36.1103 10.439 36.24 11.0921 36.2345 11.7384L36.2356 11.7373Z" fill="#FDFBFB" stroke="#FDFBFB" stroke-width="0.5" stroke-linecap="round" stroke-linejoin="round"/>
<path d="M55.8535 24.3947C56.0268 25.126 56.029 25.9535 55.9496 26.6881C55.6768 29.1907 55.1009 31.6598 54.2399 34.0259C53.9447 34.8389 53.5935 35.6697 52.9427 36.24C51.5125 37.4924 48.8478 36.665 48.4139 34.8143C47.9499 32.8339 49.7267 30.9754 49.7357 28.9414C48.547 29.1863 47.3583 29.4312 46.1708 29.676C44.2977 36.1774 40.6534 42.3276 35.1629 46.2817C30.3054 49.7795 23.8767 51.3864 18.0083 49.8947C12.4149 48.4734 8.03368 43.0209 6.84612 37.5148C5.3354 37.9945 3.60103 38.453 2.24239 37.6367C0.61649 36.6594 0.578471 33.8985 2.1753 32.8753C2.74447 32.5119 3.421 32.3654 4.08187 32.2267C5.46623 31.9349 6.8506 31.643 8.23496 31.3523C9.3174 31.1241 10.534 30.9184 11.4588 31.5256C12.5312 32.229 12.7291 33.6782 13.0187 34.9272C13.4973 36.9926 14.5093 38.9484 16.0089 40.4479C19.5995 44.0363 25.6044 44.4355 30.1745 42.2236C34.7436 40.0118 37.9719 35.6339 39.8505 30.9184C38.4997 31.6318 36.6994 31.5703 35.5621 30.5505C34.4249 29.5307 34.2404 27.5302 35.3463 26.4757C36.0161 25.8372 36.9756 25.6303 37.8836 25.4503C42.7166 24.4886 47.5506 23.5258 52.3836 22.5641C53.0501 22.4311 53.7546 22.3013 54.3953 22.5272C55.2116 22.8146 55.65 23.5403 55.8535 24.3969V24.3947Z" fill="#FDFBFB" stroke="#FDFBFB" stroke-width="0.5" stroke-linecap="round" stroke-linejoin="round"/>
<path d="M22.0505 37.4164C23.3604 37.4164 24.4222 36.3545 24.4222 35.0446C24.4222 33.7347 23.3604 32.6729 22.0505 32.6729C20.7406 32.6729 19.6787 33.7347 19.6787 35.0446C19.6787 36.3545 20.7406 37.4164 22.0505 37.4164Z" fill="#FDFBFB" stroke="#FDFBFB" stroke-width="0.5" stroke-linecap="round" stroke-linejoin="round"/>
<path d="M28.5153 35.993C29.8252 35.993 30.8871 34.9312 30.8871 33.6213C30.8871 32.3114 29.8252 31.2495 28.5153 31.2495C27.2054 31.2495 26.1436 32.3114 26.1436 33.6213C26.1436 34.9312 27.2054 35.993 28.5153 35.993Z" fill="#FDFBFB" stroke="#FDFBFB" stroke-width="0.5" stroke-linecap="round" stroke-linejoin="round"/>
<path d="M86.5098 15.4199C86.3691 15.4199 86.2461 15.5312 86.1406 15.7539C85.6953 16.6211 85.2207 17.4062 84.7168 18.1094C84.2246 18.8125 83.7266 19.4102 83.2227 19.9023C82.7188 20.3945 82.2207 20.7754 81.7285 21.0449C81.2363 21.3027 80.7734 21.4316 80.3398 21.4316C79.918 21.4316 79.5254 21.3438 79.1621 21.168C78.8105 20.9805 78.4238 20.6348 78.002 20.1309C77.5918 19.627 77.1172 18.9297 76.5781 18.0391C76.0508 17.1484 75.4004 15.9883 74.627 14.5586C74.498 14.3242 74.3633 14.1543 74.2227 14.0488C74.0938 13.9316 73.9766 13.873 73.8711 13.873C73.7188 13.873 73.5781 14.0371 73.4492 14.3652C73.3203 14.6816 73.209 15.1328 73.1152 15.7188C73.0215 16.293 72.9453 16.9902 72.8867 17.8105C72.8398 18.6191 72.8164 19.5156 72.8164 20.5C72.8164 21.0859 72.8457 21.6719 72.9043 22.2578C72.9746 22.8438 73.0098 23.4473 73.0098 24.0684C73.0098 24.2793 72.9512 24.4785 72.834 24.666C72.7168 24.8418 72.5586 24.9941 72.3594 25.123C72.1719 25.2637 71.9434 25.375 71.6738 25.457C71.416 25.5391 71.1406 25.5801 70.8477 25.5801C70.2617 25.5801 69.8398 25.2285 69.582 24.5254C69.3242 23.8223 69.1953 22.6973 69.1953 21.1504C69.1953 19.1934 69.3008 17.418 69.5117 15.8242C69.7344 14.2188 70.0449 12.8477 70.4434 11.7109C70.8535 10.5625 71.334 9.67773 71.8848 9.05664C72.4473 8.42383 73.0742 8.10742 73.7656 8.10742C74.375 8.10742 74.9551 8.45898 75.5059 9.16211C76.0684 9.85352 76.6719 10.9785 77.3164 12.5371C77.5742 13.1699 77.8496 13.7617 78.1426 14.3125C78.4473 14.8633 78.7461 15.3438 79.0391 15.7539C79.3438 16.1523 79.6367 16.4688 79.918 16.7031C80.1992 16.9258 80.4512 17.0371 80.6738 17.0371C80.8965 17.0371 81.1074 16.9902 81.3066 16.8965C81.5176 16.791 81.752 16.5742 82.0098 16.2461C82.2793 15.9062 82.5898 15.4141 82.9414 14.7695C83.3047 14.125 83.75 13.2637 84.2773 12.1855C84.5586 11.623 84.8105 11.1543 85.0332 10.7793C85.2559 10.4043 85.4785 10.1055 85.7012 9.88281C85.9238 9.64844 86.1582 9.48438 86.4043 9.39062C86.6504 9.28516 86.9258 9.23242 87.2305 9.23242C87.5938 9.23242 87.9512 9.42578 88.3027 9.8125C88.6543 10.1992 88.9941 10.7148 89.3223 11.3594C89.6621 12.0039 89.9902 12.7539 90.3066 13.6094C90.623 14.4648 90.9277 15.3613 91.2207 16.2988C91.5254 17.2363 91.8184 18.1914 92.0996 19.1641C92.3926 20.125 92.6738 21.0391 92.9434 21.9062C93.0137 22.1641 93.0605 22.3457 93.084 22.4512C93.1191 22.5449 93.1367 22.6621 93.1367 22.8027C93.1367 23.002 93.0723 23.2012 92.9434 23.4004C92.8262 23.5879 92.668 23.7578 92.4688 23.9102C92.2695 24.0625 92.041 24.1855 91.7832 24.2793C91.5371 24.373 91.291 24.4199 91.0449 24.4199C90.7168 24.4199 90.459 24.3848 90.2715 24.3145C90.0957 24.2324 89.9551 24.0918 89.8496 23.8926C89.791 23.7871 89.6914 23.5059 89.5508 23.0488C89.4102 22.5918 89.2402 22.0527 89.041 21.4316C88.8535 20.7988 88.6426 20.1309 88.4082 19.4277C88.1855 18.7246 87.957 18.0801 87.7227 17.4941C87.5 16.8965 87.2832 16.4043 87.0723 16.0176C86.8613 15.6191 86.6738 15.4199 86.5098 15.4199ZM109.414 21.1504C109.754 20.8574 110.088 20.7109 110.416 20.7109C110.604 20.7109 110.773 20.7578 110.926 20.8516C111.078 20.9453 111.248 21.0918 111.436 21.291C111.611 21.5605 111.734 21.7832 111.805 21.959C111.887 22.123 111.928 22.2871 111.928 22.4512C111.928 22.8027 111.752 23.1367 111.4 23.4531C110.838 23.9219 110.229 24.3438 109.572 24.7188C108.916 25.082 108.23 25.3926 107.516 25.6504C106.801 25.9082 106.062 26.1016 105.301 26.2305C104.539 26.3711 103.783 26.4414 103.033 26.4414C102.084 26.4414 101.193 26.3184 100.361 26.0723C99.5293 25.8379 98.7852 25.498 98.1289 25.0527C97.4844 24.6074 96.9395 24.0742 96.4941 23.4531C96.0488 22.8203 95.7324 22.1113 95.5449 21.3262C95.4395 20.998 95.3398 20.7871 95.2461 20.6934C95.1641 20.5879 95.0234 20.5352 94.8242 20.5352C94.3906 20.5352 94.0566 20.4297 93.8223 20.2188C93.5879 20.0078 93.4707 19.7031 93.4707 19.3047C93.4707 19.1406 93.4824 19.0352 93.5059 18.9883L93.541 18.6367C93.5996 18.2148 93.7109 17.9102 93.875 17.7227C94.0508 17.5352 94.3203 17.4414 94.6836 17.4414H94.9473C95.4395 17.4414 95.7852 17.2129 95.9844 16.7559C96.3477 15.9473 96.8105 15.209 97.373 14.541C97.9355 13.873 98.5684 13.3047 99.2715 12.8359C99.9746 12.3555 100.725 11.9863 101.521 11.7285C102.33 11.459 103.15 11.3242 103.982 11.3242C104.85 11.3242 105.658 11.4531 106.408 11.7109C107.17 11.957 107.832 12.3027 108.395 12.748C108.957 13.1934 109.396 13.7148 109.713 14.3125C110.041 14.9102 110.205 15.5547 110.205 16.2461C110.205 16.7266 110.111 17.166 109.924 17.5645C109.736 17.9629 109.467 18.3145 109.115 18.6191C108.764 18.9121 108.336 19.1523 107.832 19.3398C107.34 19.5273 106.777 19.6504 106.145 19.709L100.045 20.3242C99.8105 20.3242 99.6172 20.3828 99.4648 20.5C99.3242 20.6172 99.2539 20.7754 99.2539 20.9746C99.2539 21.2793 99.3652 21.5723 99.5879 21.8535C99.8223 22.1348 100.127 22.3867 100.502 22.6094C100.889 22.8203 101.328 22.9902 101.82 23.1191C102.324 23.248 102.84 23.3125 103.367 23.3125C103.871 23.3125 104.387 23.2656 104.914 23.1719C105.453 23.0664 105.98 22.9199 106.496 22.7324C107.023 22.5449 107.533 22.3223 108.025 22.0645C108.518 21.7949 108.98 21.4902 109.414 21.1504ZM105.494 16.6152C105.67 16.5801 105.822 16.498 105.951 16.3691C106.08 16.2285 106.145 16.0586 106.145 15.8594C106.145 15.6836 106.08 15.5195 105.951 15.3672C105.822 15.2148 105.646 15.0801 105.424 14.9629C105.201 14.834 104.943 14.7344 104.65 14.6641C104.357 14.5938 104.047 14.5586 103.719 14.5586C103.238 14.5586 102.746 14.6289 102.242 14.7695C101.738 14.9102 101.281 15.0977 100.871 15.332C100.461 15.5547 100.127 15.8066 99.8691 16.0879C99.6113 16.3574 99.4824 16.627 99.4824 16.8965C99.4824 17.166 99.6465 17.3008 99.9746 17.3008C100.174 17.3008 100.496 17.2773 100.941 17.2305C101.387 17.1836 101.879 17.1309 102.418 17.0723C102.957 17.002 103.502 16.9258 104.053 16.8438C104.604 16.7617 105.084 16.6855 105.494 16.6152ZM124.812 12.1504C124.859 12.1738 124.93 12.1855 125.023 12.1855C125.281 12.1855 125.41 12.0156 125.41 11.6758V6.20898C125.41 5.51758 125.562 5.02539 125.867 4.73242C126.184 4.43945 126.705 4.29297 127.432 4.29297C128.17 4.29297 128.691 4.44531 128.996 4.75C129.301 5.05469 129.453 5.57617 129.453 6.31445C129.453 6.5957 129.436 7.01172 129.4 7.5625C129.365 8.10156 129.324 8.7168 129.277 9.4082C129.242 10.0996 129.207 10.8438 129.172 11.6406C129.137 12.4258 129.119 13.2051 129.119 13.9785C129.119 15.1738 129.201 16.2051 129.365 17.0723C129.529 17.9395 129.764 18.6602 130.068 19.2344C130.373 19.7969 130.736 20.2188 131.158 20.5C131.58 20.7695 132.055 20.9043 132.582 20.9043C132.875 20.9043 133.139 20.8691 133.373 20.7988C133.619 20.7168 133.906 20.6758 134.234 20.6758C134.469 20.6758 134.662 20.7988 134.814 21.0449C134.979 21.2793 135.061 21.5664 135.061 21.9062C135.061 22.2109 134.967 22.498 134.779 22.7676C134.604 23.0371 134.357 23.2715 134.041 23.4707C133.736 23.6699 133.379 23.8281 132.969 23.9453C132.559 24.0508 132.131 24.1035 131.686 24.1035C130.725 24.1035 129.846 23.8105 129.049 23.2246C128.252 22.627 127.654 21.7188 127.256 20.5C127.221 20.3125 127.162 20.2188 127.08 20.2188C126.986 20.2188 126.91 20.3125 126.852 20.5C126.535 21.3555 126.119 22.1289 125.604 22.8203C125.1 23.5 124.508 24.0859 123.828 24.5781C123.16 25.0586 122.422 25.4277 121.613 25.6855C120.816 25.9434 119.973 26.0723 119.082 26.0723C118.145 26.0723 117.283 25.9141 116.498 25.5977C115.725 25.293 115.057 24.8652 114.494 24.3145C113.932 23.752 113.492 23.0957 113.176 22.3457C112.859 21.584 112.701 20.7637 112.701 19.8848C112.701 18.7598 112.936 17.6992 113.404 16.7031C113.873 15.707 114.506 14.8398 115.303 14.1016C116.111 13.3516 117.049 12.7598 118.115 12.3262C119.182 11.8926 120.318 11.6758 121.525 11.6758C122.018 11.6758 122.539 11.7168 123.09 11.7988C123.641 11.8691 124.215 11.9863 124.812 12.1504ZM119.768 22.9082C120.436 22.9082 121.027 22.7617 121.543 22.4688C122.07 22.1758 122.533 21.8066 122.932 21.3613C123.342 20.9043 123.688 20.4062 123.969 19.8672C124.25 19.3164 124.479 18.7832 124.654 18.2676C124.83 17.752 124.959 17.2891 125.041 16.8789C125.123 16.4688 125.164 16.1758 125.164 16C125.164 15.8711 125.129 15.7598 125.059 15.666C124.988 15.5605 124.883 15.4785 124.742 15.4199C124.426 15.3379 124.098 15.2676 123.758 15.209C123.418 15.1387 123.084 15.0801 122.756 15.0332C122.428 14.9863 122.111 14.9512 121.807 14.9277C121.514 14.9043 121.244 14.8926 120.998 14.8926C120.295 14.8926 119.656 14.998 119.082 15.209C118.508 15.4199 118.016 15.7188 117.605 16.1055C117.207 16.4922 116.896 16.9551 116.674 17.4941C116.451 18.0215 116.34 18.6016 116.34 19.2344C116.34 19.7969 116.422 20.3066 116.586 20.7637C116.762 21.209 116.996 21.5898 117.289 21.9062C117.594 22.2227 117.957 22.4688 118.379 22.6445C118.801 22.8203 119.264 22.9082 119.768 22.9082ZM136.783 7.07031C136.443 7.07031 136.121 7.02344 135.816 6.92969C135.523 6.82422 135.266 6.68359 135.043 6.50781C134.832 6.32031 134.662 6.10352 134.533 5.85742C134.404 5.61133 134.34 5.3418 134.34 5.04883C134.34 4.55664 134.533 4.1582 134.92 3.85352C135.318 3.54883 135.846 3.39648 136.502 3.39648C136.807 3.39648 137.1 3.45508 137.381 3.57227C137.662 3.67773 137.908 3.82422 138.119 4.01172C138.342 4.19922 138.518 4.42187 138.646 4.67969C138.775 4.92578 138.84 5.18359 138.84 5.45312C138.84 5.95703 138.652 6.35547 138.277 6.64844C137.914 6.92969 137.416 7.07031 136.783 7.07031ZM134.375 12.4316C134.375 12.0215 134.551 11.6875 134.902 11.4297C135.266 11.1602 135.74 11.0254 136.326 11.0254C137.381 11.0254 137.943 11.3887 138.014 12.1152C138.061 12.6191 138.107 13.1875 138.154 13.8203C138.213 14.4531 138.266 15.127 138.312 15.8418C138.371 16.5449 138.418 17.2773 138.453 18.0391C138.5 18.7891 138.541 19.5332 138.576 20.2715C138.611 20.998 138.641 21.7012 138.664 22.3809C138.688 23.0605 138.699 23.6816 138.699 24.2441C138.699 24.8301 138.488 25.2695 138.066 25.5625C137.656 25.8555 137.053 26.002 136.256 26.002C135.893 26.002 135.605 25.9141 135.395 25.7383C135.195 25.5742 135.096 25.3281 135.096 25C135.096 23.3828 135.055 21.8711 134.973 20.4648C134.902 19.0469 134.82 17.7871 134.727 16.6855C134.645 15.584 134.562 14.6699 134.48 13.9434C134.41 13.2051 134.375 12.7012 134.375 12.4316ZM142.18 19.1641C142.18 18.9648 142.203 18.7422 142.25 18.4961C142.297 18.25 142.32 17.9805 142.32 17.6875C142.32 17.4883 142.232 17.3359 142.057 17.2305C141.893 17.125 141.705 17.0078 141.494 16.8789C141.283 16.75 141.09 16.5859 140.914 16.3867C140.75 16.1875 140.668 15.9004 140.668 15.5254C140.668 15.2559 140.738 14.9863 140.879 14.7168C141.031 14.4473 141.248 14.2012 141.529 13.9785C142.221 13.4629 142.936 13 143.674 12.5898C144.424 12.1797 145.168 11.834 145.906 11.5527C146.656 11.2715 147.395 11.0547 148.121 10.9023C148.848 10.75 149.545 10.6738 150.213 10.6738C151.338 10.6738 152.393 10.8848 153.377 11.3066C154.373 11.7168 155.234 12.2852 155.961 13.0117C156.699 13.7266 157.279 14.5703 157.701 15.543C158.135 16.5039 158.352 17.5352 158.352 18.6367C158.352 19.7148 158.123 20.7402 157.666 21.7129C157.221 22.6738 156.617 23.5176 155.855 24.2441C155.094 24.9707 154.197 25.5449 153.166 25.9668C152.146 26.4004 151.068 26.6172 149.932 26.6172C148.818 26.6172 147.787 26.4297 146.838 26.0547C145.889 25.6797 145.068 25.1641 144.377 24.5078C143.686 23.8398 143.146 23.0547 142.76 22.1523C142.373 21.2383 142.18 20.2422 142.18 19.1641ZM150.318 23.4531C150.811 23.4531 151.32 23.3535 151.848 23.1543C152.375 22.9551 152.855 22.668 153.289 22.293C153.734 21.9062 154.098 21.4375 154.379 20.8867C154.672 20.3359 154.818 19.7148 154.818 19.0234C154.818 18.3203 154.689 17.6641 154.432 17.0547C154.174 16.4453 153.816 15.918 153.359 15.4727C152.914 15.0156 152.381 14.6582 151.76 14.4004C151.15 14.1426 150.488 14.0137 149.773 14.0137C148.473 14.0137 147.477 14.3535 146.785 15.0332C146.094 15.7012 145.748 16.7324 145.748 18.127C145.748 18.8887 145.859 19.5977 146.082 20.2539C146.316 20.8984 146.639 21.4609 147.049 21.9414C147.459 22.4102 147.939 22.7793 148.49 23.0488C149.053 23.3184 149.662 23.4531 150.318 23.4531Z" fill="#FDFBFB"/>
<path d="M76.8594 31.6719C76.2031 31.6719 75.5938 31.8301 75.0312 32.1465C74.4805 32.4512 73.9941 32.8789 73.5723 33.4297C73.1621 33.9688 72.8398 34.6074 72.6055 35.3457C72.3711 36.084 72.2539 36.875 72.2539 37.7188C72.2539 38.5859 72.4473 39.3887 72.834 40.127C73.2324 40.8535 73.7773 41.4922 74.4688 42.043C75.1719 42.582 75.9922 43.0039 76.9297 43.3086C77.8789 43.6133 78.9102 43.7656 80.0234 43.7656C80.832 43.7656 81.5938 43.6953 82.3086 43.5547C83.0352 43.4023 83.668 43.2031 84.207 42.957C84.7461 42.7109 85.1738 42.4238 85.4902 42.0957C85.8066 41.7559 85.9648 41.3984 85.9648 41.0234C85.9648 40.7305 85.9121 40.4902 85.8066 40.3027C85.7012 40.1035 85.5781 39.9277 85.4375 39.7754C85.3086 39.6113 85.1914 39.4531 85.0859 39.3008C84.9805 39.1367 84.9277 38.9316 84.9277 38.6855C84.9277 38.4512 84.9863 38.2285 85.1035 38.0176C85.2207 37.8066 85.3789 37.6191 85.5781 37.4551C85.7891 37.291 86.0234 37.1621 86.2812 37.0684C86.5508 36.9746 86.8262 36.9277 87.1074 36.9277C87.4473 36.9277 87.7637 37.0156 88.0566 37.1914C88.3613 37.3672 88.6191 37.6133 88.8301 37.9297C89.0527 38.2344 89.2227 38.5977 89.3398 39.0195C89.4688 39.4297 89.5332 39.8691 89.5332 40.3379C89.5332 41.2871 89.2812 42.1719 88.7773 42.9922C88.2734 43.8008 87.5762 44.498 86.6855 45.084C85.7949 45.6699 84.7402 46.1328 83.5215 46.4727C82.3027 46.8008 80.9785 46.9648 79.5488 46.9648C77.9668 46.9648 76.5078 46.7539 75.1719 46.332C73.8359 45.8984 72.6816 45.3008 71.709 44.5391C70.748 43.7773 69.998 42.875 69.459 41.832C68.9199 40.7891 68.6504 39.6465 68.6504 38.4043C68.6504 37.0449 68.8848 35.7617 69.3535 34.5547C69.834 33.3477 70.4844 32.293 71.3047 31.3906C72.125 30.4883 73.0801 29.7734 74.1699 29.2461C75.2715 28.7188 76.4434 28.4551 77.6855 28.4551C78.2363 28.4551 78.7402 28.5195 79.1973 28.6484C79.666 28.7656 80.0703 28.9355 80.4102 29.1582C80.75 29.3809 81.0137 29.6445 81.2012 29.9492C81.4004 30.2422 81.5 30.5645 81.5 30.916C81.5 31.1973 81.4355 31.4668 81.3066 31.7246C81.1895 31.9707 81.0312 32.1934 80.832 32.3926C80.6328 32.5801 80.3984 32.7324 80.1289 32.8496C79.8711 32.9668 79.5957 33.0254 79.3027 33.0254C78.998 33.0254 78.752 32.9551 78.5645 32.8145C78.3887 32.6738 78.2246 32.5215 78.0723 32.3574C77.9199 32.1816 77.7559 32.0234 77.5801 31.8828C77.4043 31.7422 77.1641 31.6719 76.8594 31.6719ZM98.498 33.8516C98.0645 33.8516 97.6836 33.9688 97.3555 34.2031C97.0273 34.4258 96.7461 34.7422 96.5117 35.1523C96.2773 35.5508 96.084 36.0254 95.9316 36.5762C95.7793 37.1152 95.6562 37.707 95.5625 38.3516C95.4688 38.9961 95.4043 39.6699 95.3691 40.373C95.334 41.0762 95.3164 41.7852 95.3164 42.5C95.3164 43.4375 95.3516 44.3633 95.4219 45.2773C95.5039 46.1797 95.5449 47.0176 95.5449 47.791C95.5449 48.2949 95.3574 48.6875 94.9824 48.9688C94.6074 49.2617 94.0742 49.4082 93.3828 49.4082C93.2539 49.4082 93.1074 49.3965 92.9434 49.373C92.7793 49.3496 92.6211 49.3027 92.4688 49.2324C92.3281 49.1621 92.1992 49.0625 92.082 48.9336C91.9766 48.8164 91.918 48.6523 91.9062 48.4414C91.8008 47.4102 91.6484 46.3555 91.4492 45.2773C91.25 44.1992 90.998 43.127 90.6934 42.0605C90.4004 40.9824 90.043 39.916 89.6211 38.8613C89.2109 37.8066 88.7363 36.7754 88.1973 35.7676C88.1035 35.5918 88.0215 35.4277 87.9512 35.2754C87.8926 35.123 87.8633 34.9766 87.8633 34.8359C87.8633 34.6602 87.9395 34.4727 88.0918 34.2734C88.2559 34.0625 88.4551 33.8691 88.6895 33.6934C88.9355 33.5176 89.1992 33.377 89.4805 33.2715C89.7734 33.1543 90.0547 33.0957 90.3242 33.0957C90.7695 33.0957 91.1621 33.4062 91.502 34.0273C91.8418 34.6367 92.1582 35.6152 92.4512 36.9629C92.5098 37.1973 92.5566 37.3613 92.5918 37.4551C92.627 37.5488 92.6738 37.5957 92.7324 37.5957C92.8613 37.5957 92.9434 37.3965 92.9785 36.998C93.1191 35.8848 93.3594 34.9297 93.6992 34.1328C94.0391 33.3242 94.4609 32.6621 94.9648 32.1465C95.4805 31.6191 96.0664 31.2324 96.7227 30.9863C97.3906 30.7402 98.123 30.6172 98.9199 30.6172C99.377 30.6172 99.8398 30.6582 100.309 30.7402C100.777 30.8223 101.199 30.9453 101.574 31.1094C101.949 31.2734 102.254 31.4727 102.488 31.707C102.723 31.9414 102.84 32.2051 102.84 32.498C102.84 32.709 102.793 32.9609 102.699 33.2539C102.617 33.5352 102.506 33.8105 102.365 34.0801C102.225 34.3379 102.061 34.5605 101.873 34.748C101.697 34.9238 101.516 35.0117 101.328 35.0117C101.117 35.0117 100.912 34.9531 100.713 34.8359C100.514 34.707 100.297 34.5723 100.062 34.4316C99.8398 34.291 99.5996 34.1621 99.3418 34.0449C99.0957 33.916 98.8145 33.8516 98.498 33.8516ZM116.691 43.1504C117.031 42.8574 117.365 42.7109 117.693 42.7109C117.881 42.7109 118.051 42.7578 118.203 42.8516C118.355 42.9453 118.525 43.0918 118.713 43.291C118.889 43.5605 119.012 43.7832 119.082 43.959C119.164 44.123 119.205 44.2871 119.205 44.4512C119.205 44.8027 119.029 45.1367 118.678 45.4531C118.115 45.9219 117.506 46.3438 116.85 46.7188C116.193 47.082 115.508 47.3926 114.793 47.6504C114.078 47.9082 113.34 48.1016 112.578 48.2305C111.816 48.3711 111.061 48.4414 110.311 48.4414C109.361 48.4414 108.471 48.3184 107.639 48.0723C106.807 47.8379 106.062 47.498 105.406 47.0527C104.762 46.6074 104.217 46.0742 103.771 45.4531C103.326 44.8203 103.01 44.1113 102.822 43.3262C102.717 42.998 102.617 42.7871 102.523 42.6934C102.441 42.5879 102.301 42.5352 102.102 42.5352C101.668 42.5352 101.334 42.4297 101.1 42.2188C100.865 42.0078 100.748 41.7031 100.748 41.3047C100.748 41.1406 100.76 41.0352 100.783 40.9883L100.818 40.6367C100.877 40.2148 100.988 39.9102 101.152 39.7227C101.328 39.5352 101.598 39.4414 101.961 39.4414H102.225C102.717 39.4414 103.062 39.2129 103.262 38.7559C103.625 37.9473 104.088 37.209 104.65 36.541C105.213 35.873 105.846 35.3047 106.549 34.8359C107.252 34.3555 108.002 33.9863 108.799 33.7285C109.607 33.459 110.428 33.3242 111.26 33.3242C112.127 33.3242 112.936 33.4531 113.686 33.7109C114.447 33.957 115.109 34.3027 115.672 34.748C116.234 35.1934 116.674 35.7148 116.99 36.3125C117.318 36.9102 117.482 37.5547 117.482 38.2461C117.482 38.7266 117.389 39.166 117.201 39.5645C117.014 39.9629 116.744 40.3145 116.393 40.6191C116.041 40.9121 115.613 41.1523 115.109 41.3398C114.617 41.5273 114.055 41.6504 113.422 41.709L107.322 42.3242C107.088 42.3242 106.895 42.3828 106.742 42.5C106.602 42.6172 106.531 42.7754 106.531 42.9746C106.531 43.2793 106.643 43.5723 106.865 43.8535C107.1 44.1348 107.404 44.3867 107.779 44.6094C108.166 44.8203 108.605 44.9902 109.098 45.1191C109.602 45.248 110.117 45.3125 110.645 45.3125C111.148 45.3125 111.664 45.2656 112.191 45.1719C112.73 45.0664 113.258 44.9199 113.773 44.7324C114.301 44.5449 114.811 44.3223 115.303 44.0645C115.795 43.7949 116.258 43.4902 116.691 43.1504ZM112.771 38.6152C112.947 38.5801 113.1 38.498 113.229 38.3691C113.357 38.2285 113.422 38.0586 113.422 37.8594C113.422 37.6836 113.357 37.5195 113.229 37.3672C113.1 37.2148 112.924 37.0801 112.701 36.9629C112.479 36.834 112.221 36.7344 111.928 36.6641C111.635 36.5938 111.324 36.5586 110.996 36.5586C110.516 36.5586 110.023 36.6289 109.52 36.7695C109.016 36.9102 108.559 37.0977 108.148 37.332C107.738 37.5547 107.404 37.8066 107.146 38.0879C106.889 38.3574 106.76 38.627 106.76 38.8965C106.76 39.166 106.924 39.3008 107.252 39.3008C107.451 39.3008 107.773 39.2773 108.219 39.2305C108.664 39.1836 109.156 39.1309 109.695 39.0723C110.234 39.002 110.779 38.9258 111.33 38.8438C111.881 38.7617 112.361 38.6855 112.771 38.6152ZM131.369 31.6367C132.014 31.6367 132.635 31.7363 133.232 31.9355C133.83 32.1348 134.357 32.4102 134.814 32.7617C135.271 33.1133 135.635 33.5352 135.904 34.0273C136.186 34.5195 136.326 35.0645 136.326 35.6621C136.326 35.9082 136.268 36.1484 136.15 36.3828C136.045 36.6055 135.898 36.8047 135.711 36.9805C135.523 37.1445 135.307 37.2793 135.061 37.3848C134.826 37.4785 134.58 37.5254 134.322 37.5254C134.299 37.5254 134.275 37.5312 134.252 37.543C134.24 37.543 134.223 37.543 134.199 37.543C134.176 37.5547 134.152 37.5605 134.129 37.5605L134.199 38.9668C134.246 40.6426 134.48 41.8672 134.902 42.6406C135.336 43.4141 135.898 43.8008 136.59 43.8008C136.836 43.8008 137.053 43.7773 137.24 43.7305C137.439 43.6836 137.621 43.6309 137.785 43.5723C137.961 43.502 138.125 43.4434 138.277 43.3965C138.43 43.3496 138.582 43.3262 138.734 43.3262C139.004 43.3262 139.238 43.4434 139.438 43.6777C139.648 43.9121 139.754 44.1934 139.754 44.5215C139.754 44.8496 139.625 45.1777 139.367 45.5059C139.121 45.834 138.793 46.1328 138.383 46.4023C137.973 46.6602 137.51 46.8711 136.994 47.0352C136.479 47.1992 135.957 47.2812 135.43 47.2812C134.516 47.2812 133.713 46.9062 133.021 46.1562C132.33 45.3945 131.838 44.2812 131.545 42.8164C131.475 42.582 131.381 42.4648 131.264 42.4648C131.123 42.4648 131 42.5352 130.895 42.6758C129.734 44.1406 128.498 45.2422 127.186 45.9805C125.873 46.707 124.578 47.0703 123.301 47.0703C122.703 47.0703 122.164 46.9824 121.684 46.8066C121.203 46.6309 120.793 46.3848 120.453 46.0684C120.125 45.7402 119.867 45.3477 119.68 44.8906C119.504 44.4219 119.416 43.9004 119.416 43.3262C119.416 42.5176 119.592 41.668 119.943 40.7773C120.307 39.8867 120.793 39.0078 121.402 38.1406C122.012 37.2734 122.715 36.4473 123.512 35.6621C124.32 34.877 125.164 34.1855 126.043 33.5879C126.934 32.9902 127.836 32.5156 128.75 32.1641C129.664 31.8125 130.537 31.6367 131.369 31.6367ZM130.789 37.7188C131 37.3203 131.193 37.0332 131.369 36.8574C131.545 36.6699 131.797 36.5469 132.125 36.4883C132.383 36.4531 132.512 36.3711 132.512 36.2422C132.512 36.1484 132.477 36.0488 132.406 35.9434C132.184 35.6387 131.949 35.375 131.703 35.1523C131.457 34.918 131.129 34.8008 130.719 34.8008C130.273 34.8008 129.775 34.9297 129.225 35.1875C128.674 35.4453 128.111 35.791 127.537 36.2246C126.975 36.6465 126.418 37.1328 125.867 37.6836C125.328 38.2227 124.848 38.7793 124.426 39.3535C124.004 39.9277 123.664 40.4961 123.406 41.0586C123.148 41.6211 123.02 42.125 123.02 42.5703C123.02 42.9688 123.125 43.2793 123.336 43.502C123.559 43.7246 123.857 43.8359 124.232 43.8359C125.193 43.8359 126.242 43.3262 127.379 42.3066C128.516 41.2871 129.652 39.7578 130.789 37.7188ZM141.969 26.6973C141.969 26.0762 142.145 25.6426 142.496 25.3965C142.848 25.1387 143.428 25.0098 144.236 25.0098C144.529 25.0098 144.775 25.0391 144.975 25.0977C145.186 25.1445 145.361 25.2383 145.502 25.3789C145.654 25.5195 145.771 25.707 145.854 25.9414C145.947 26.1641 146.023 26.4512 146.082 26.8027C146.223 27.8926 146.375 29.0176 146.539 30.1777C146.715 31.3379 146.896 32.5039 147.084 33.6758C147.154 34.2031 147.43 34.4668 147.91 34.4668C148.039 34.4668 148.25 34.4551 148.543 34.4316C148.848 34.3965 149.205 34.3613 149.615 34.3262C150.025 34.2793 150.465 34.2324 150.934 34.1855C151.414 34.1387 151.889 34.0977 152.357 34.0625C152.838 34.0156 153.289 33.9805 153.711 33.957C154.145 33.9219 154.525 33.9043 154.854 33.9043C155.111 33.9043 155.316 33.957 155.469 34.0625C155.621 34.1562 155.738 34.2852 155.82 34.4492C155.914 34.6016 155.973 34.7773 155.996 34.9766C156.031 35.1641 156.049 35.3574 156.049 35.5566C156.049 35.7324 156.014 35.9141 155.943 36.1016C155.885 36.2891 155.797 36.459 155.68 36.6113C155.574 36.752 155.439 36.8691 155.275 36.9629C155.111 37.0566 154.924 37.1035 154.713 37.1035C153.693 37.1035 152.662 37.1387 151.619 37.209C150.588 37.2676 149.557 37.3496 148.525 37.4551C147.998 37.5254 147.734 37.7891 147.734 38.2461C147.734 38.2812 147.74 38.3281 147.752 38.3867C147.764 38.4336 147.77 38.4746 147.77 38.5098C147.91 39.5293 148.039 40.4844 148.156 41.375C148.285 42.2656 148.391 43.0625 148.473 43.7656C148.566 44.457 148.637 45.0371 148.684 45.5059C148.742 45.9629 148.771 46.2676 148.771 46.4199C148.771 46.8418 148.73 47.1934 148.648 47.4746C148.566 47.7676 148.432 48.002 148.244 48.1777C148.057 48.3652 147.805 48.4941 147.488 48.5645C147.184 48.6465 146.797 48.6875 146.328 48.6875C145.883 48.6875 145.555 48.582 145.344 48.3711C145.133 48.1602 145.016 47.8379 144.992 47.4043C144.922 46.0215 144.811 44.6328 144.658 43.2383C144.506 41.832 144.33 40.4316 144.131 39.0371C144.025 38.5332 143.762 38.2812 143.34 38.2812C143.305 38.2812 143.264 38.2871 143.217 38.2988C143.17 38.3105 143.129 38.3164 143.094 38.3164C142.367 38.4805 141.682 38.6445 141.037 38.8086C140.393 38.9727 139.789 39.1484 139.227 39.3359C138.91 39.4414 138.629 39.5176 138.383 39.5645C138.137 39.5996 137.914 39.6172 137.715 39.6172C137.445 39.6172 137.246 39.5 137.117 39.2656C136.988 39.0195 136.924 38.7148 136.924 38.3516C136.924 38.2227 136.936 38.0762 136.959 37.9121C136.982 37.7363 137.029 37.5664 137.1 37.4023C137.158 37.2266 137.252 37.0684 137.381 36.9277C137.498 36.7754 137.662 36.6523 137.873 36.5586C138.365 36.3594 139.021 36.1543 139.842 35.9434C140.662 35.7207 141.588 35.5156 142.619 35.3281C142.854 35.2695 143.035 35.1758 143.164 35.0469C143.305 34.9062 143.375 34.7012 143.375 34.4316C143.375 34.373 143.375 34.3145 143.375 34.2559C143.375 34.1855 143.363 34.1152 143.34 34.0449C143.152 32.9668 142.971 31.9883 142.795 31.1094C142.631 30.2188 142.484 29.457 142.355 28.8242C142.238 28.1914 142.145 27.6934 142.074 27.3301C142.004 26.9668 141.969 26.7559 141.969 26.6973ZM157.666 29.0703C157.326 29.0703 157.004 29.0234 156.699 28.9297C156.406 28.8242 156.148 28.6836 155.926 28.5078C155.715 28.3203 155.545 28.1035 155.416 27.8574C155.287 27.6113 155.223 27.3418 155.223 27.0488C155.223 26.5566 155.416 26.1582 155.803 25.8535C156.201 25.5488 156.729 25.3965 157.385 25.3965C157.689 25.3965 157.982 25.4551 158.264 25.5723C158.545 25.6777 158.791 25.8242 159.002 26.0117C159.225 26.1992 159.4 26.4219 159.529 26.6797C159.658 26.9258 159.723 27.1836 159.723 27.4531C159.723 27.957 159.535 28.3555 159.16 28.6484C158.797 28.9297 158.299 29.0703 157.666 29.0703ZM155.258 34.4316C155.258 34.0215 155.434 33.6875 155.785 33.4297C156.148 33.1602 156.623 33.0254 157.209 33.0254C158.264 33.0254 158.826 33.3887 158.896 34.1152C158.943 34.6191 158.99 35.1875 159.037 35.8203C159.096 36.4531 159.148 37.127 159.195 37.8418C159.254 38.5449 159.301 39.2773 159.336 40.0391C159.383 40.7891 159.424 41.5332 159.459 42.2715C159.494 42.998 159.523 43.7012 159.547 44.3809C159.57 45.0605 159.582 45.6816 159.582 46.2441C159.582 46.8301 159.371 47.2695 158.949 47.5625C158.539 47.8555 157.936 48.002 157.139 48.002C156.775 48.002 156.488 47.9141 156.277 47.7383C156.078 47.5742 155.979 47.3281 155.979 47C155.979 45.3828 155.938 43.8711 155.855 42.4648C155.785 41.0469 155.703 39.7871 155.609 38.6855C155.527 37.584 155.445 36.6699 155.363 35.9434C155.293 35.2051 155.258 34.7012 155.258 34.4316ZM172.238 33.4297C172.273 33.1016 172.314 32.832 172.361 32.6211C172.42 32.3984 172.502 32.2227 172.607 32.0938C172.725 31.9531 172.871 31.8535 173.047 31.7949C173.223 31.7363 173.445 31.707 173.715 31.707C174.57 31.707 175.197 31.8359 175.596 32.0938C176.006 32.3398 176.211 32.7383 176.211 33.2891C176.211 33.3945 176.188 33.6289 176.141 33.9922C176.105 34.3438 176.053 34.7832 175.982 35.3105C175.912 35.8262 175.83 36.4004 175.736 37.0332C175.654 37.6543 175.572 38.2871 175.49 38.9316C175.279 40.4316 175.039 42.1133 174.77 43.9766C174.605 45.0781 174.277 45.8691 173.785 46.3496C173.305 46.8301 172.59 47.0703 171.641 47.0703C170.926 47.0703 170.188 46.8887 169.426 46.5254C168.664 46.1621 167.926 45.6699 167.211 45.0488C166.496 44.4277 165.816 43.707 165.172 42.8867C164.539 42.0547 163.982 41.1758 163.502 40.25C163.021 39.3125 162.641 38.3574 162.359 37.3848C162.09 36.4121 161.955 35.4629 161.955 34.5371C161.955 33.4941 162.102 32.7148 162.395 32.1992C162.699 31.6719 163.221 31.4082 163.959 31.4082C164.475 31.4082 164.902 31.4434 165.242 31.5137C165.582 31.5723 165.852 31.6836 166.051 31.8477C166.262 32 166.408 32.2051 166.49 32.4629C166.584 32.7207 166.631 33.043 166.631 33.4297C166.631 33.6875 166.619 33.9453 166.596 34.2031C166.572 34.4609 166.561 34.7188 166.561 34.9766C166.561 35.5742 166.619 36.2012 166.736 36.8574C166.865 37.502 167.035 38.1348 167.246 38.7559C167.457 39.377 167.703 39.9688 167.984 40.5312C168.266 41.082 168.564 41.5684 168.881 41.9902C169.197 42.4121 169.514 42.7461 169.83 42.9922C170.158 43.2383 170.475 43.3613 170.779 43.3613C170.99 43.3613 171.148 43.291 171.254 43.1504C171.371 43.0098 171.447 42.7695 171.482 42.4297L172.238 33.4297ZM189.764 31.6367C190.408 31.6367 191.029 31.7363 191.627 31.9355C192.225 32.1348 192.752 32.4102 193.209 32.7617C193.666 33.1133 194.029 33.5352 194.299 34.0273C194.58 34.5195 194.721 35.0645 194.721 35.6621C194.721 35.9082 194.662 36.1484 194.545 36.3828C194.439 36.6055 194.293 36.8047 194.105 36.9805C193.918 37.1445 193.701 37.2793 193.455 37.3848C193.221 37.4785 192.975 37.5254 192.717 37.5254C192.693 37.5254 192.67 37.5312 192.646 37.543C192.635 37.543 192.617 37.543 192.594 37.543C192.57 37.5547 192.547 37.5605 192.523 37.5605L192.594 38.9668C192.641 40.6426 192.875 41.8672 193.297 42.6406C193.73 43.4141 194.293 43.8008 194.984 43.8008C195.23 43.8008 195.447 43.7773 195.635 43.7305C195.834 43.6836 196.016 43.6309 196.18 43.5723C196.355 43.502 196.52 43.4434 196.672 43.3965C196.824 43.3496 196.977 43.3262 197.129 43.3262C197.398 43.3262 197.633 43.4434 197.832 43.6777C198.043 43.9121 198.148 44.1934 198.148 44.5215C198.148 44.8496 198.02 45.1777 197.762 45.5059C197.516 45.834 197.188 46.1328 196.777 46.4023C196.367 46.6602 195.904 46.8711 195.389 47.0352C194.873 47.1992 194.352 47.2812 193.824 47.2812C192.91 47.2812 192.107 46.9062 191.416 46.1562C190.725 45.3945 190.232 44.2812 189.939 42.8164C189.869 42.582 189.775 42.4648 189.658 42.4648C189.518 42.4648 189.395 42.5352 189.289 42.6758C188.129 44.1406 186.893 45.2422 185.58 45.9805C184.268 46.707 182.973 47.0703 181.695 47.0703C181.098 47.0703 180.559 46.9824 180.078 46.8066C179.598 46.6309 179.188 46.3848 178.848 46.0684C178.52 45.7402 178.262 45.3477 178.074 44.8906C177.898 44.4219 177.811 43.9004 177.811 43.3262C177.811 42.5176 177.986 41.668 178.338 40.7773C178.701 39.8867 179.188 39.0078 179.797 38.1406C180.406 37.2734 181.109 36.4473 181.906 35.6621C182.715 34.877 183.559 34.1855 184.438 33.5879C185.328 32.9902 186.23 32.5156 187.145 32.1641C188.059 31.8125 188.932 31.6367 189.764 31.6367ZM189.184 37.7188C189.395 37.3203 189.588 37.0332 189.764 36.8574C189.939 36.6699 190.191 36.5469 190.52 36.4883C190.777 36.4531 190.906 36.3711 190.906 36.2422C190.906 36.1484 190.871 36.0488 190.801 35.9434C190.578 35.6387 190.344 35.375 190.098 35.1523C189.852 34.918 189.523 34.8008 189.113 34.8008C188.668 34.8008 188.17 34.9297 187.619 35.1875C187.068 35.4453 186.506 35.791 185.932 36.2246C185.369 36.6465 184.812 37.1328 184.262 37.6836C183.723 38.2227 183.242 38.7793 182.82 39.3535C182.398 39.9277 182.059 40.4961 181.801 41.0586C181.543 41.6211 181.414 42.125 181.414 42.5703C181.414 42.9688 181.52 43.2793 181.73 43.502C181.953 43.7246 182.252 43.8359 182.627 43.8359C183.588 43.8359 184.637 43.3262 185.773 42.3066C186.91 41.2871 188.047 39.7578 189.184 37.7188Z" fill="#FDFBFB"/>
</svg>
