<svg width="66" height="52" viewBox="0 0 66 52" fill="none" xmlns="http://www.w3.org/2000/svg">
<path d="M42.2434 5.97987C42.2329 7.10582 41.8708 8.21591 41.1175 9.04716C40.0457 10.2313 38.259 10.7057 36.7392 10.218C35.9027 9.94977 35.1679 9.42644 34.338 9.13835C33.0997 8.70885 31.7385 8.83175 30.4513 9.08284C24.478 10.2471 19.1006 14.1721 16.1721 19.5071C15.5576 20.6278 15.0303 21.8251 14.1383 22.7409C12.1705 24.7603 8.38031 23.8669 8.28516 20.7785C8.24287 19.4186 8.89175 18.1407 9.57895 16.9658C12.6 11.796 16.7681 7.20229 21.9895 4.27112C27.2122 1.34127 33.5332 0.17699 39.3242 1.69808C39.7642 1.81305 40.2083 1.94785 40.5889 2.1963C41.1452 2.5584 41.5272 3.13988 41.7915 3.74779C42.0954 4.44556 42.2487 5.21734 42.2421 5.98119L42.2434 5.97987Z" fill="#FDFBFB" stroke="#FDFBFB" stroke-width="0.5" stroke-linecap="round" stroke-linejoin="round"/>
<path d="M65.4303 20.9382C65.6352 21.8025 65.6378 22.7804 65.544 23.6487C65.2215 26.6063 64.5409 29.5242 63.5234 32.3206C63.1745 33.2814 62.7595 34.2633 61.9904 34.9373C60.3001 36.4174 57.1509 35.4394 56.6381 33.2523C56.0897 30.9118 58.1896 28.7154 58.2002 26.3116C56.7954 26.601 55.3906 26.8904 53.9871 27.1798C51.7736 34.8632 47.4667 42.1317 40.9779 46.8047C35.2371 50.9384 27.6396 52.8375 20.7042 51.0746C14.0938 49.3949 8.91605 42.9511 7.51257 36.4438C5.72717 37.0107 3.67746 37.5526 2.07179 36.5879C0.150277 35.4328 0.105345 32.17 1.9925 30.9607C2.66517 30.5312 3.4647 30.3581 4.24573 30.1943C5.88179 29.8493 7.51786 29.5044 9.15392 29.1608C10.4332 28.8912 11.871 28.6481 12.9639 29.3656C14.2313 30.1969 14.4652 31.9096 14.8075 33.3858C15.3731 35.8267 16.5691 38.138 18.3413 39.9102C22.5847 44.151 29.6814 44.6228 35.0825 42.0088C40.4823 39.3948 44.2976 34.221 46.5178 28.6481C44.9214 29.4912 42.7937 29.4185 41.4497 28.2133C40.1057 27.008 39.8876 24.6438 41.1946 23.3976C41.9862 22.643 43.1201 22.3985 44.1932 22.1857C49.9049 21.0492 55.6179 19.9114 61.3296 18.7748C62.1172 18.6176 62.9498 18.4643 63.7071 18.7312C64.6718 19.0709 65.1898 19.9285 65.4303 20.9408V20.9382Z" fill="#FDFBFB" stroke="#FDFBFB" stroke-width="0.5" stroke-linecap="round" stroke-linejoin="round"/>
<path d="M25.4827 36.3267C27.0307 36.3267 28.2857 35.0717 28.2857 33.5237C28.2857 31.9756 27.0307 30.7207 25.4827 30.7207C23.9346 30.7207 22.6797 31.9756 22.6797 33.5237C22.6797 35.0717 23.9346 36.3267 25.4827 36.3267Z" fill="#FDFBFB" stroke="#FDFBFB" stroke-width="0.5" stroke-linecap="round" stroke-linejoin="round"/>
<path d="M33.1233 34.645C34.6713 34.645 35.9263 33.3901 35.9263 31.842C35.9263 30.294 34.6713 29.0391 33.1233 29.0391C31.5753 29.0391 30.3203 30.294 30.3203 31.842C30.3203 33.3901 31.5753 34.645 33.1233 34.645Z" fill="#FDFBFB" stroke="#FDFBFB" stroke-width="0.5" stroke-linecap="round" stroke-linejoin="round"/>
</svg>
