<svg xmlns="http://www.w3.org/2000/svg" width="50" height="50" fill="none"><path fill="#211F1F" d="M31.86 9.69c-.008.845-.28 1.678-.845 2.302-.804.888-2.145 1.244-3.285.878-.628-.2-1.18-.594-1.803-.81-.929-.322-1.95-.23-2.916-.042-4.483.874-8.519 3.82-10.716 7.824-.462.84-.857 1.74-1.527 2.427-1.477 1.515-4.32.845-4.392-1.473-.032-1.02.455-1.98.97-2.861 2.268-3.88 5.396-7.328 9.314-9.527 3.92-2.2 8.663-3.073 13.01-1.931.33.086.663.187.949.373.417.272.704.709.902 1.165.228.523.343 1.103.338 1.676l.001-.001ZM49.26 20.916c.154.648.156 1.382.085 2.034a27.899 27.899 0 0 1-1.516 6.508c-.262.72-.574 1.458-1.15 1.964-1.27 1.11-3.633.377-4.017-1.265-.412-1.756 1.164-3.405 1.172-5.209l-3.162.652c-1.661 5.766-4.893 11.22-9.763 14.728-4.308 3.102-10.01 4.527-15.215 3.204-4.96-1.26-8.846-6.096-9.9-10.98-1.34.426-2.878.832-4.083.108-1.442-.866-1.475-3.315-.06-4.223.506-.322 1.106-.452 1.692-.575 1.228-.259 2.455-.518 3.683-.775.96-.203 2.04-.385 2.86.153.95.624 1.126 1.91 1.383 3.017.425 1.832 1.322 3.567 2.652 4.897 3.185 3.182 8.51 3.536 12.564 1.575 4.052-1.962 6.915-5.845 8.582-10.027-1.198.632-2.795.578-3.804-.327-1.009-.904-1.172-2.678-.191-3.614.594-.566 1.445-.75 2.25-.909l12.86-2.56c.591-.118 1.216-.233 1.785-.033.724.255 1.112.899 1.293 1.659v-.002Z"/><path fill="#211F1F" d="M19.28 32.465a2.104 2.104 0 1 0 0-4.207 2.104 2.104 0 0 0 0 4.207ZM25.013 31.203a2.104 2.104 0 1 0 0-4.208 2.104 2.104 0 0 0 0 4.207Z"/><path stroke="#211F1F" stroke-linecap="round" stroke-linejoin="round" stroke-width=".1" d="M31.86 9.69c-.008.845-.28 1.678-.845 2.302-.804.888-2.145 1.244-3.285.878-.628-.2-1.18-.594-1.803-.81-.929-.322-1.95-.23-2.916-.042-4.483.874-8.519 3.82-10.716 7.824-.462.84-.857 1.74-1.527 2.427-1.477 1.515-4.32.845-4.392-1.473-.032-1.02.455-1.98.97-2.861 2.268-3.88 5.396-7.328 9.314-9.527 3.92-2.2 8.663-3.073 13.01-1.931.33.086.663.187.949.373.417.272.704.709.902 1.165.228.523.343 1.103.338 1.676l.001-.001ZM49.26 20.916c.154.648.156 1.382.085 2.034a27.899 27.899 0 0 1-1.516 6.508c-.262.72-.574 1.458-1.15 1.964-1.27 1.11-3.633.377-4.017-1.265-.412-1.756 1.164-3.405 1.172-5.209l-3.162.652c-1.661 5.766-4.893 11.22-9.763 14.728-4.308 3.102-10.01 4.527-15.215 3.204-4.96-1.26-8.846-6.096-9.9-10.98-1.34.426-2.878.832-4.083.108-1.442-.866-1.475-3.315-.06-4.223.506-.322 1.106-.452 1.692-.575 1.228-.259 2.455-.518 3.683-.775.96-.203 2.04-.385 2.86.153.95.624 1.126 1.91 1.383 3.017.425 1.832 1.322 3.567 2.652 4.897 3.185 3.182 8.51 3.536 12.564 1.575 4.052-1.962 6.915-5.845 8.582-10.027-1.198.632-2.795.578-3.804-.327-1.009-.904-1.172-2.678-.191-3.614.594-.566 1.445-.75 2.25-.909l12.86-2.56c.591-.118 1.216-.233 1.785-.033.724.255 1.112.899 1.293 1.659v-.002Z"/><path stroke="#211F1F" stroke-linecap="round" stroke-linejoin="round" stroke-width=".1" d="M19.28 32.465a2.104 2.104 0 1 0 0-4.207 2.104 2.104 0 0 0 0 4.207ZM25.013 31.203a2.104 2.104 0 1 0 0-4.208 2.104 2.104 0 0 0 0 4.207Z"/></svg>